<?xml version="1.0" encoding="utf-8"?>
<!-- Generator: Adobe Illustrator 22.1.0, SVG Export Plug-In . SVG Version: 6.00 Build 0)  -->
<svg version="1.1" id="Layer_1" xmlns="http://www.w3.org/2000/svg" xmlns:xlink="http://www.w3.org/1999/xlink" x="0px" y="0px"
	 viewBox="0 0 152 76" style="enable-background:new 0 0 152 76;" xml:space="preserve">
<style type="text/css">
	.st0{fill:#FFFFFF;}
	.st1{fill:#EC4324;}
</style>
<g>
	<g>
		<path class="st0" d="M114,76c-25.3,0-50.7,0-76,0c0-0.2,0-0.4,0-0.7c0-24.9,0-49.8,0-74.7c0-0.2,0-0.4,0-0.7c25.3,0,50.7,0,76,0
			c0,0.2,0,0.4,0,0.7c0,24.9,0,49.8,0,74.7C114,75.6,114,75.8,114,76z M47.6,27.2c0,0.2,0,0.2,0,0.3c0.8,2.9,1.6,5.7,2.4,8.6
			c0.3,1.2,0.2,1.5-1,2c-0.9,0.4-1.8,0.8-2.7,1.3c2.7,2.2,5.3,4.3,7.9,6.4c2.1,1.7,4.1,3.4,6.2,5.1c0.7,0.6,1,1.4,0.7,2.3
			c-0.2,0.6-0.4,1.2-0.6,1.8c-0.2,0.7-0.4,1.3-0.6,2c2.5-0.4,4.9-0.7,7.3-1c2.2-0.3,4.3-0.6,6.5-0.9c1-0.1,1.6,0.6,1.5,1.6
			c-0.1,1.3-0.1,2.6-0.2,3.9c-0.1,2.5-0.2,4.9-0.3,7.4c0,1.1,0,2.2,0,3.3c0.7,0,1.4,0,2.2,0c0-0.2,0-0.4,0-0.6
			c-0.1-4.6-0.2-9.3-0.4-13.9c0-1.1,0.6-1.6,1.6-1.5c3,0.4,5.9,0.8,8.9,1.2c1.6,0.2,3.1,0.4,4.8,0.7c-0.4-1.3-0.7-2.5-1.1-3.7
			c-0.4-1.2-0.2-1.8,0.8-2.6c3.5-2.9,7-5.7,10.5-8.6c1.1-0.9,2.3-1.8,3.5-2.8c-1-0.5-1.8-0.9-2.7-1.3c-1.1-0.5-1.3-0.8-0.9-2
			c0.5-2,1.1-4,1.6-6c0.3-0.9,0.5-1.9,0.8-2.9c-1,0.2-1.8,0.4-2.7,0.6c-1.7,0.4-3.5,0.7-5.2,1.1c-1.1,0.2-1.6-0.1-1.9-1.2
			c-0.3-1.1-0.6-2.1-0.9-3.3c-1.1,1.2-2,2.3-3,3.4c-1.2,1.4-2.4,2.8-3.7,4.1c-0.5,0.5-1.2,0.7-1.6,0.5c-0.6-0.3-0.6-0.9-0.6-1.5
			c0-0.1,0-0.1,0-0.2c0.7-4,1.5-8,2.2-12c0.2-1.1,0.4-2.1,0.6-3.3c-1.4,0.7-2.6,1.4-3.9,2c-1.3,0.7-2,0.4-2.7-0.9
			c-1.5-2.9-3.1-5.7-4.6-8.6c-0.1-0.2-0.2-0.4-0.4-0.6c-0.1,0.3-0.3,0.5-0.4,0.7c-1.6,2.9-3.1,5.8-4.7,8.7c-0.5,1-1.2,1.2-2.2,0.8
			c-0.2-0.1-0.5-0.2-0.7-0.3c-1.2-0.6-2.3-1.2-3.6-1.8c0,0.3,0,0.5,0.1,0.6c0.5,2.8,1.1,5.6,1.6,8.4c0.4,2.1,0.8,4.3,1.2,6.4
			c0.1,0.8-0.1,1.4-0.6,1.6c-0.5,0.2-1.1,0-1.6-0.5c-0.1-0.1-0.1-0.1-0.2-0.2c-1.5-1.7-3-3.4-4.5-5.1c-0.6-0.7-1.2-1.4-1.9-2.1
			c-0.3,1.2-0.6,2.2-0.9,3.3c-0.3,1.1-0.9,1.4-2,1.2c-1.7-0.4-3.5-0.7-5.2-1.1C49.4,27.5,48.5,27.4,47.6,27.2z"/>
		<path class="st1" d="M38,0c0,0.2,0,0.4,0,0.7c0,24.9,0,49.8,0,74.7c0,0.2,0,0.4,0,0.7c-12.7,0-25.3,0-38,0C0,50.7,0,25.3,0,0
			C12.7,0,25.3,0,38,0z"/>
		<path class="st1" d="M114,76c0-0.2,0-0.4,0-0.7c0-24.9,0-49.8,0-74.7c0-0.2,0-0.4,0-0.7c12.7,0,25.3,0,38,0c0,25.3,0,50.7,0,76
			C139.3,76,126.7,76,114,76z"/>
		<path class="st1" d="M47.6,27.2c0.9,0.2,1.8,0.4,2.6,0.5c1.7,0.4,3.5,0.7,5.2,1.1c1.1,0.2,1.7-0.1,2-1.2c0.3-1.1,0.6-2.1,0.9-3.3
			c0.7,0.7,1.3,1.4,1.9,2.1c1.5,1.7,3,3.4,4.5,5.1c0.1,0.1,0.1,0.1,0.2,0.2c0.5,0.6,1.2,0.8,1.6,0.5c0.5-0.2,0.7-0.8,0.6-1.6
			c-0.4-2.1-0.8-4.3-1.2-6.4c-0.5-2.8-1.1-5.6-1.6-8.4c0-0.2,0-0.3-0.1-0.6c1.2,0.6,2.4,1.2,3.6,1.8c0.2,0.1,0.5,0.2,0.7,0.3
			c1,0.4,1.7,0.1,2.2-0.8c1.6-2.9,3.1-5.8,4.7-8.7c0.1-0.2,0.2-0.4,0.4-0.7c0.1,0.2,0.3,0.4,0.4,0.6c1.5,2.9,3.1,5.7,4.6,8.6
			c0.7,1.3,1.4,1.5,2.7,0.9c1.3-0.6,2.5-1.3,3.9-2c-0.2,1.2-0.4,2.3-0.6,3.3c-0.7,4-1.5,8-2.2,12c0,0.1,0,0.1,0,0.2
			c0,0.6,0,1.2,0.6,1.5c0.4,0.3,1.1,0.1,1.6-0.5c1.2-1.4,2.5-2.7,3.7-4.1c1-1.1,2-2.2,3-3.4c0.3,1.2,0.6,2.3,0.9,3.3
			c0.3,1.1,0.8,1.4,1.9,1.2c1.7-0.4,3.5-0.7,5.2-1.1c0.9-0.2,1.7-0.4,2.7-0.6c-0.3,1-0.5,2-0.8,2.9c-0.5,2-1.1,4-1.6,6
			c-0.3,1.2-0.2,1.5,0.9,2c0.9,0.4,1.8,0.8,2.7,1.3c-1.2,1-2.3,1.9-3.5,2.8c-3.5,2.9-7,5.7-10.5,8.6c-1,0.8-1.1,1.4-0.8,2.6
			c0.4,1.2,0.7,2.4,1.1,3.7c-1.6-0.2-3.2-0.4-4.8-0.7c-3-0.4-5.9-0.8-8.9-1.2c-1.1-0.1-1.6,0.4-1.6,1.5c0.1,4.6,0.2,9.3,0.4,13.9
			c0,0.2,0,0.4,0,0.6c-0.8,0-1.5,0-2.2,0c0-1.1,0-2.2,0-3.3c0.1-2.5,0.2-4.9,0.3-7.4c0.1-1.3,0.1-2.6,0.2-3.9c0.1-1-0.5-1.7-1.5-1.6
			c-2.2,0.3-4.3,0.6-6.5,0.9c-2.4,0.3-4.8,0.7-7.3,1c0.2-0.7,0.4-1.4,0.6-2c0.2-0.6,0.4-1.2,0.6-1.8c0.3-0.9,0.1-1.7-0.7-2.3
			c-2.1-1.7-4.1-3.4-6.2-5.1c-2.6-2.1-5.2-4.2-7.9-6.4c0.9-0.4,1.8-0.9,2.7-1.3c1.2-0.5,1.3-0.8,1-2c-0.8-2.9-1.6-5.7-2.4-8.6
			C47.7,27.4,47.7,27.4,47.6,27.2z"/>
	</g>
</g>
</svg>
