<?xml version="1.0" encoding="utf-8"?>
<!-- Generator: Adobe Illustrator 22.1.0, SVG Export Plug-In . SVG Version: 6.00 Build 0)  -->
<svg version="1.1" id="_x32_5x25" xmlns="http://www.w3.org/2000/svg" xmlns:xlink="http://www.w3.org/1999/xlink" x="0px" y="0px"
	 viewBox="0 0 1360 300" style="enable-background:new 0 0 1360 300;" xml:space="preserve">
<style type="text/css">
	.st0{fill:#FFFFFF;}
</style>
<g>
	<g>
		<path class="st0" d="M827.5,319.4c-6.8-3-14.4-4.6-21.6-6.2c-21.2-4.9-42.7-8.4-64.5-8.4c-42.3,0-84,12.4-126.3,7.6
			c-10.6-1.2-22.4-2.9-32.1-7.7c-1.2-0.6-3.3,1.1-1.7,2c7.2,3.5,15.6,5.2,23.5,6.6c19.3,3.3,38.9,3,58.3,1c21-2.2,41.9-5.6,63-6.8
			c23.9-1.3,47.2,1.2,70.6,6.1c9.7,2,20.1,3.9,29.3,7.9C827,321.8,829.1,320.1,827.5,319.4L827.5,319.4z"/>
	</g>
	<g>
		<path class="st0" d="M540.3,299.7c-17,2.9-33.9,6.3-50.7,10.1c-13.6,3.1-27,7.1-40.5,10.8c-16,4.3-32.6,8.4-49.3,6.5
			c-0.7-0.1-3.3,1.1-1.9,1.2c29.3,3.3,58.3-9.5,86.3-16.2c18.4-4.4,37-8,55.6-11.3C541,300.6,542.4,299.3,540.3,299.7L540.3,299.7z"
			/>
	</g>
	<g>
		<path class="st0" d="M770.6,285c-10.7,3.9-22.7,5.2-34,5.5c-22.8,0.7-44.9-4.8-66.8-10.5c-20-5.2-39.9-11.1-60.1-15.8
			c-15.2-3.6-30.1-4.8-45.7-4.8c-13.7,0-27.5,0.5-41.2,1.4c-0.8,0.1-3.1,1.3-1.2,1.2c12.6-0.8,25.2-1.3,37.8-1.3
			c17.4-0.1,33.7,1.3,50.6,5.4c20.3,4.9,40.4,10.9,60.7,16c21.3,5.4,42.6,10.5,64.7,9.8c12-0.4,24.8-1.8,36.2-6
			C773.5,285,771.7,284.6,770.6,285L770.6,285z"/>
	</g>
	<g>
		<path class="st0" d="M858.3,115.8c-19.6-3.8-39.4-7.4-59.4-8.6c-13.9-0.9-27.9-0.8-41.3,3.5c-10.1,3.3-19.5,8.1-30,10.3
			c-17.4,3.7-35.9,2.4-53.5,0.3c-15.2-1.8-30.2-5-45.4-6.3c-14.6-1.3-28.8,0.2-43.1,3.4c-17.6,3.8-34.9,9.1-52.6,12.6
			c-18.7,3.7-37.2,4.3-56.2,1.9c-25.9-3.3-52-10.1-76.2-19.7c-0.9-0.4-3.5,1-2.3,1.5c19.6,7.7,40.4,13.4,61.1,17.4
			c16,3,32.3,5,48.6,4c17.9-1.1,35.4-5.4,52.7-9.8c16.9-4.3,34.1-9.4,51.7-9.9c15.3-0.4,30.5,2.4,45.5,4.7c28.9,4.4,59,7.2,86.7-3.7
			c5.3-2.1,10.5-4.4,16-5.9c8.3-2.4,17-3,25.6-2.9c23.6,0.3,47,4.4,70.1,8.9C857.5,117.7,859.9,116.1,858.3,115.8L858.3,115.8z"/>
	</g>
	<g>
		<path class="st0" d="M836.6,111.9c-11.5,0.3-23,0.8-34.5,1.6c-16.1,1-32.4,2-47.8,7.2c-7.9,2.7-15.6,5.9-23.6,8.4
			c-11.4,3.5-23.2,5.3-35.1,5.6c-19.8,0.4-39.7-3.6-59.1-7.4c-9.8-1.9-19.5-4.1-29.2-6.1c-6.1-1.3-12.3-2.8-18.6-3.2
			c-1.1-0.1-3.1,1.6-1.1,1.7c14.4,0.9,29,5.6,43.2,8.4c18.9,3.8,38.1,7.6,57.4,8.2c19.4,0.7,37.8-3.4,55.9-10.2
			c7.9-3,15.8-6,24.2-7.5c8.2-1.5,16.5-2.2,24.7-2.8c14.1-1.1,28.3-1.8,42.5-2.2C836.7,113.6,838.6,111.8,836.6,111.9L836.6,111.9z"
			/>
	</g>
	<g>
		<path class="st0" d="M739.8,34.8c-21.3,3.6-43.7,3.4-65.1,0.8c-31-3.7-60.3-16-90-25.1c-11.1-3.4-22.2-6.2-33.6-8.3
			c-0.7-0.1-3.2,1-2.4,1.2c23.1,4.3,45.2,12.1,67.5,19.3c17.2,5.6,34.2,11.2,52.2,13.7c15.4,2.2,31.1,2.7,46.7,2
			c8-0.4,16.1-1,24.1-2.3C740.5,35.8,741.8,34.5,739.8,34.8L739.8,34.8z"/>
	</g>
	<g>
		<path class="st0" d="M389.9,291.4c1,0,3.1-1.4,1.2-1.4C390.1,290,388,291.4,389.9,291.4L389.9,291.4z"/>
	</g>
	<g>
		<path class="st0" d="M682.5,346.7c-36.7,8.3-75.8,10.4-113.2,8.2c-14-0.8-27.8-2.7-41.8-1.2c-13.3,1.5-25.9,6.2-38.4,10.7
			c-14.1,5.1-28.3,10-43.4,11.5c-14.8,1.5-29.8,0.5-44.5-1.8c-14.3-2.3-28.3-6.3-42.6-8.7c-14.2-2.4-28.6-3.9-43.1-4.6
			c-29.6-1.4-59.1,0.5-88.5,4.2c-15.4,1.9-30.8,4.1-46.3,4.3c-15.2,0.3-30.1-2-45-5c-14.2-2.9-28.4-6.1-42.8-7.2
			c-14.1-1.1-27.9-3.4-41.7-6.7c-26.5-6.3-53.1-16.7-80.5-18.2c-12.5-0.7-25.1,0.8-37.1,4.4c-11,3.3-21.3,8.3-32.1,12
			c-1.7,0.6-1.3,2.1,0.4,1.5c9.6-3.2,18.8-7.5,28.3-10.8c11.8-4,24.2-5.9,36.7-5.5c25.1,0.6,49.8,9.9,73.9,16.1
			c13.2,3.4,26.5,6.3,40,7.9c14.5,1.7,28.7,3.1,43,6.1c13.9,2.9,27.8,5.9,42.1,6.8c14.4,0.9,28.9-0.3,43.2-1.9
			c30.6-3.5,60.9-7.2,91.8-6.7c15.2,0.2,30.3,1.3,45.4,3.4c14.9,2,29.4,5.8,44.2,8.7c25.7,5.1,52.5,6.2,77.9-1.2
			c13.9-4,27.1-9.7,40.9-13.9c14.8-4.5,29.8-4.9,45.2-3.6c42.3,3.8,86.6,2.1,128.2-7.3C684.6,347.8,684.2,346.3,682.5,346.7
			L682.5,346.7z"/>
	</g>
	<g>
		<path class="st0" d="M757.1,340.7c-5.9,3.6-13.2,5.3-19.8,6.6c-19.4,3.9-39.3,2.1-58.5-1.5c-40.8-7.6-80.5-24.1-122.2-26
			c-18.5-0.9-37.1,0.7-55.3,4.3c-16.4,3.3-31.7,8.7-47.3,14.8c-22.4,8.9-45.4,18.2-69.7,19.4c-11.6,0.5-23.1-0.3-34.6-1.5
			c-12.2-1.2-24.3-2.5-36.4-4.6c-26.1-4.5-50.8-14.2-75.9-22.3c-23.8-7.8-48-14.4-73-16.7c-1.1-0.1-3.1,1.5-1.1,1.7
			c23.8,2.1,47,8.4,69.7,15.7c22.9,7.4,45.6,16.4,69.2,21.4c22.1,4.7,45.4,7.3,68,8c22.3,0.7,43-4.2,63.9-11.8
			c19.3-7,37.9-15.8,57.9-20.5c18.4-4.3,37.2-6.7,56-6.4c43.6,0.5,84.9,17.7,127.2,25.9c20.3,3.9,41,5.9,61.4,1.9
			c7.5-1.4,15.7-3.4,22.3-7.4C760.6,340.5,758.1,340.1,757.1,340.7L757.1,340.7z"/>
	</g>
	<g>
		<path class="st0" d="M268.3,341.1c-13.2,8-31.5,9-46.4,8.6c-32.9-0.8-65.1-11.4-96.7-19.6c-14.3-3.7-28.8-7.2-43.5-9
			c-14.5-1.8-29.2-1.7-43.7-0.4c-18.7,1.7-37.5,5.3-55.1,11.8c-26.2,9.7-52.5,22.7-80.5,26c-0.7,0.1-3.2,1.3-1.3,1.1
			c24.6-2.9,47.8-13.1,70.7-21.9c19.6-7.6,39.1-13.1,60.1-15.4c16.6-1.8,33.7-2,50.3,0.4c15.4,2.2,30.5,6,45.6,10
			c31.5,8.2,63.9,18.6,96.8,18.3c14.8-0.1,32.7-1.8,45.8-9.8C271.6,340.4,268.7,340.8,268.3,341.1L268.3,341.1z"/>
	</g>
	<g>
		<path class="st0" d="M806.5,250.9c-20.5-5.5-42-9.8-63.3-10.2c-15.2-0.3-29.9,2.7-45,4.3c-14.5,1.5-28.3-0.3-42.6-2.7
			c-31.6-5.3-63.4-10.7-95.5-9.7c-32.6,1-65.4,6.7-95.7,18.9c-30.8,12.3-57.5,32.1-86,48.5c-15.3,8.8-31.3,17.4-48.3,22.2
			c-17.6,5-36.2,4.5-54.1,1.6c-23.9-4-46.5-12.6-69.1-21c-28.6-10.7-58-19.8-88.5-23.2c-30.6-3.4-61.4-5.9-92.1-2.4
			c-17.1,1.9-33.8,5.7-50.3,10.7c-16.3,5-32.2,11-48.5,15.7c-8.4,2.4-16.9,4.3-25.6,5.6c-1.4,0.2-2.4,1.9-0.4,1.6
			c33.5-4.9,64.3-20,97.2-27.4c32.2-7.2,65-7.2,97.7-4.2c16.9,1.5,33.7,3.4,50.3,7.1c15.7,3.6,31,8.3,46.2,13.7
			c20.9,7.4,41.5,16,63,21.5c30.4,7.8,61.1,8.9,90.4-3.3c30.3-12.7,57-32.2,85.3-48.6c30.8-17.8,64.1-28.9,99.5-33.1
			c34.5-4.2,68.5-1.3,102.7,4.2c12.6,2,25.2,4.5,37.9,6.1c14.4,1.8,28.4-0.2,42.6-2.2c16.2-2.3,32.1-2.6,48.4-0.4
			c12.1,1.6,24.1,4,35.9,6.9c2,0.5,4.1,1,6.1,1.5C805.7,252.8,808.1,251.4,806.5,250.9L806.5,250.9z"/>
	</g>
	<g>
		<path class="st0" d="M411.2,280.8c-37.8-7.1-76.2-18.3-115-17.4c-33.1,0.8-64.7,8.1-95.9,18.5c-30.2,10-61.6,21.3-93.7,22.9
			c-31.9,1.5-62.5-9.5-94.3-9.2c-40.7,0.4-75.9,17.8-111.3,36c-1.7,0.9,0.9,1.1,1.7,0.7c33.1-17,66.2-33.8,104.2-35.2
			c31.4-1.1,61.7,9.4,93,9.3c29.5-0.1,58.8-9.5,86.6-18.6c12.3-4,24.5-8.4,37-12c18.3-5.3,37.2-8.6,56.2-10.1
			c22.4-1.8,44,0.1,66,4.1c21.3,3.9,42.4,8.5,63.6,12.4C410.2,282.4,412.8,281.1,411.2,280.8L411.2,280.8z"/>
	</g>
	<g>
		<path class="st0" d="M339.1,319.7c-6.5-2.9-13.8-4.4-20.7-6c-21.5-5.1-43.2-8.6-65.3-8.6c-42.3,0-84.1,12.4-126.4,7.6
			c-10.7-1.2-22.4-2.9-32.2-7.7c-0.8-0.4-3.5,0.8-2.3,1.3c7.2,3.5,15.6,5.2,23.4,6.6c18.9,3.3,38.1,3.1,57.1,1.1
			c21.4-2.2,42.6-5.7,64.1-6.9c23.9-1.3,47.2,1.2,70.6,6.1c9.7,2,20.2,3.9,29.3,7.9C337.6,321.4,340.3,320.2,339.1,319.7
			L339.1,319.7z"/>
	</g>
	<g>
		<path class="st0" d="M51.6,299.3c-17.2,3-34.4,6.3-51.4,10.2c-14,3.2-27.8,7.4-41.7,11.1c-15.5,4.1-31.6,7.9-47.8,6.1
			c-1.2-0.1-3,1.6-1.1,1.8c29.4,3.3,58.6-9.7,86.7-16.4c18.1-4.3,36.5-7.9,54.9-11.1C52.7,300.8,53.6,299,51.6,299.3L51.6,299.3z"/>
	</g>
	<g>
		<path class="st0" d="M281.8,284.6c-32.1,11.9-68.9,3.4-101-4.9c-19.6-5.1-39.1-10.8-58.8-15.5c-15.7-3.7-30.9-5.2-47.1-5.1
			c-13.8,0-27.6,0.5-41.3,1.4c-1.5,0.1-2.3,2-0.3,1.8c29.1-1.9,58.5-3.1,87,3.7c20.8,4.9,41.3,11.1,62,16.4
			c20.8,5.3,41.7,10.3,63.4,9.8c12.4-0.3,25.6-1.7,37.4-6C284.9,285.4,283.2,284.1,281.8,284.6L281.8,284.6z"/>
	</g>
	<g>
		<path class="st0" d="M478.1,236.7c-21.7,10.4-45,19.5-68.5,25.1c-25.2,6-50.5,1.4-75-6c-21-6.3-41.9-14.2-61.9-23.1
			c-12.5-5.5-24.6-11.6-37.7-15.8c-19.8-6.4-40.6-8.4-61.3-7c-0.8,0.1-3.1,1.4-1.2,1.3c20.8-1.4,41.5,0.7,61.4,7.3
			c13.2,4.3,25.4,10.7,38.1,16.1c21.9,9.4,44.5,18.2,67.5,24.5c22.1,6,44.7,9.3,67.3,4.4c25.1-5.4,50-15.3,73.1-26.4
			C481.6,236.3,478.9,236.3,478.1,236.7L478.1,236.7z"/>
	</g>
	<g>
		<path class="st0" d="M852.4,176c-18.2,9-40.8,10.4-60.7,6.8c-26.1-4.7-51.4-13.1-77.7-17.2c-59.3-9.3-118.5,7.3-174,27.1
			c-28.6,10.2-56.6,23-85.8,31.2c-14.7,4.1-29.7,6.9-44.9,7.2c-16.6,0.3-33.3-1.5-49.7-4.1c-30.5-4.9-58.8-17-88.6-24.6
			c-14.3-3.7-28.9-6.5-43.7-5.8c-10.4,0.5-20.5,2.5-30.4,5.5c-12.1,3.6-23.9,8.2-36.1,11.3c-15.7,3.9-31.6,4.9-47.7,4.4
			c-18.1-0.5-37.4-2.1-54.8-7.6c-0.8-0.3-3.4,1-2.3,1.3c13.1,4.1,27.3,5.8,41,7c26.6,2.1,52.3,0.4,77.7-7.7
			c10.5-3.4,20.9-7.2,31.6-9.8c14.5-3.4,29.1-3.7,43.8-1.3c31.2,5.1,60,18.5,90.7,25.5c29.4,6.6,61.1,10.2,91.1,5.2
			c28.7-4.8,55.6-16.4,82.5-26.7c59.7-23,125.3-46,190.1-37.8c27.6,3.5,54,12.1,81.2,17.5c21.8,4.3,43.8,3.4,64.6-4.9
			c1.4-0.6,2.7-1.1,4.1-1.8C855.9,175.9,853.2,175.6,852.4,176L852.4,176z"/>
	</g>
	<g>
		<path class="st0" d="M315.7,249.6c-20.7-5-42.5-8.7-63.9-8.6c-15.1,0.1-29.9,3.3-44.9,4.6c-13.7,1.2-27-0.9-40.5-3.1
			c-30.7-5.2-61.7-10.3-92.9-9.6c-30.6,0.7-61,6.7-89.9,16.8c-28.8,10-56.1,24.2-81.8,40.5c-1.2,0.8,1.7,0.6,2.3,0.2
			c49.4-31.2,104.7-53.6,163.6-56c31.2-1.3,62.1,3.6,92.7,8.8c11.5,1.9,23.2,4.3,34.9,4.3c13.9,0,27.6-3,41.4-4.3
			c25.5-2.5,52,1.8,76.8,7.8C314.1,250.9,316.6,249.8,315.7,249.6L315.7,249.6z"/>
	</g>
	<g>
		<path class="st0" d="M496.1,208.9c-26.8-1.1-53.9-4.9-79.8-12.2c-24.6-6.9-46.1-21.3-70.7-28c-20.6-5.6-42.3-7.4-63.5-6.6
			c-20.1,0.8-39.2,6.1-58.5,11.4c-19.2,5.3-39.2,11.9-59.3,8.5c-18.9-3.1-37-10.2-55.2-15.9c-13.3-4.2-26.9-8.4-41-7.6
			c-13.5,0.8-26.9,2.8-40.2,4.6c-41.5,5.7-83.6,12.7-125.5,12.1c-1.3,0-3,2-1,2c37,0.5,74.2-5,110.8-9.9c15.5-2.1,30.9-4.3,46.4-5.9
			c5.2-0.5,10.5-1.2,15.8-0.9c7.8,0.4,15.4,2.4,22.9,4.5c18.3,5.2,36.2,12.1,54.7,16.7c7.5,1.9,15.2,3.4,22.9,3.5
			c9,0.1,17.9-1.8,26.6-3.9c21.5-5,42.5-13.1,64.5-15.9c21-2.7,42.9-1.8,63.7,1.9c13.8,2.5,27,6.9,39.8,12.6
			c13,5.8,25.5,12.4,39.1,16.7c27.8,8.8,57.6,13,86.7,14.2C496.4,211,498,209,496.1,208.9L496.1,208.9z"/>
	</g>
	<g>
		<path class="st0" d="M372.2,179.6c-7.3,2.8-15.4,4.1-23.1,5c-17.4,2.1-34.8,1.2-52-2.2c-36-7.2-71-19.9-108.1-19.6
			c-67.7,0.5-131.1,28-193.6,50.5c-14.8,5.3-29.7,10.5-44.9,14c-16.1,3.8-31.7,4.1-48.2,2.8c-1.2-0.1-3.1,1.6-1.1,1.8
			c14.1,1.1,27.8,1.3,41.7-1.3c12.8-2.4,25.3-6.2,37.6-10.4c30.9-10.4,61.1-22.9,92.1-33.2c34.7-11.5,70.5-20.7,107.2-22.3
			c39.1-1.8,75.6,11,113.4,18.8c25.6,5.3,55.3,6.8,80.3-2.6C375.3,180.2,373.6,179.1,372.2,179.6L372.2,179.6z"/>
	</g>
	<g>
		<path class="st0" d="M474.3,144.1c-33.3-8.3-67.7-14.7-102.1-13.4c-16.5,0.6-33,3-49,7.4c-8.2,2.2-16.2,5.3-24.5,7.2
			c-8.1,1.8-16.3,3-24.4,4.6c-1.8,0.4-1.2,2.5,0.6,2.1c8.1-1.6,16.4-2.8,24.4-4.6c7.7-1.7,15.1-4.6,22.7-6.7
			c16.3-4.6,33.1-7.1,50-7.7c34.2-1.3,68.3,5.2,101.3,13.4C474.9,146.7,476.2,144.6,474.3,144.1L474.3,144.1z"/>
	</g>
	<g>
		<path class="st0" d="M368.6,116.9c-22.1-5.2-45.1-9.1-67.8-9.7c-12.3-0.3-24.3,1.1-35.8,5.3c-12.4,4.5-23.8,9.4-37.1,10.6
			c-19.8,1.8-39.8-0.7-59.3-3.8c-15.1-2.4-30.2-5-45.6-4.3c-17.4,0.8-34.4,5.7-51.1,10c-20.4,5.2-41.2,10.3-62.4,9.8
			c-31-0.7-63.5-9.7-91.5-22.9c-0.8-0.4-3.1,0.8-2.7,1c22.8,10.8,48.2,18.2,73.2,21.6c18.6,2.5,36.8,1.7,55.2-1.9
			c19.3-3.7,38.1-9.6,57.3-13.5c17.2-3.5,33.8-3.3,51.2-0.8c17.5,2.5,34.8,5.6,52.5,6.4c15.1,0.6,30.3-0.2,44.7-5
			c11.7-3.9,22.4-9.4,34.9-10.8c17.6-1.9,35.7,0.7,53,3.6c9.7,1.6,19.5,3.4,29.1,5.6C366.9,118.1,369.4,117.1,368.6,116.9
			L368.6,116.9z"/>
	</g>
	<g>
		<path class="st0" d="M346.7,112.5c-11.6,0.2-23.2,0.7-34.7,1.4c-15.5,1-31.2,2-46,7c-8.4,2.8-16.5,6.3-25,8.8
			c-11,3.3-22.4,5-33.8,5.2c-19.7,0.4-39.6-3.6-58.8-7.4c-9.8-1.9-19.5-4.1-29.2-6.1c-6.1-1.3-12.3-2.8-18.5-3.2
			c-0.7,0-3.3,1.2-1.9,1.3c14.5,0.9,29.1,5.6,43.2,8.4c18.7,3.8,37.6,7.5,56.7,8.2c19,0.7,37.4-3,55.2-9.6
			c7.9-2.9,15.8-6.1,24.1-7.8c8.3-1.7,16.9-2.4,25.3-3c14.1-1.1,28.2-1.7,42.3-1.9C346.3,113.7,348.6,112.4,346.7,112.5L346.7,112.5
			z"/>
	</g>
	<g>
		<path class="st0" d="M193.8,346.8c-39.2,8.5-79.7,11-119.7,7.7c-17.5-1.4-34.5-1.9-52,0.7c-18.7,2.8-36.6,9.2-55.3,11.3
			c-10.5,1.2-21.1,1.4-31.7,1.5c-10.9,0.1-21.8-0.1-32.4-2.6c-0.8-0.2-3.4,1.1-1.8,1.4c17.6,4.1,36.9,3.2,54.8,2.1
			C-25,367.7-7,362,11.9,358.3c19.9-3.8,39.3-4.1,59.4-2.4c19.5,1.6,39.1,1.9,58.6,0.9c21.6-1.2,43-4.1,64.2-8.7
			C195.9,347.7,195.6,346.4,193.8,346.8L193.8,346.8z"/>
	</g>
	<g>
		<path class="st0" d="M651.9,67.6c-16.8,8.2-35.5,13.9-53.9,16.7c-25.5,3.9-49.9-2.1-74.6-8.2c-23.9-5.9-47.9-12.1-72.7-11.3
			c-14.4,0.5-28.5,2.1-42.3,6.4c-14.5,4.5-28.2,9.6-43.4,10.8c-16.8,1.3-33.8-0.5-50.1-4.8c-14-3.7-27.1-9.5-40.8-14.1
			c-13.5-4.5-27.9-7.6-42.2-7.8c-13.4-0.2-26.8,2.6-39.8,5.3c-21.3,4.5-42.2,11.5-64.1,12.8c-22.3,1.4-44.3-3.2-66-7.8
			C35.8,60.1,9.6,53.9-17,50.5c-12.4-1.6-24.9-2.6-37.3-2.2c-14.6,0.5-29.1,3.4-43.7,4.2c-1.5,0.1-2.3,2-0.3,1.9
			c13.6-0.7,27-3.2,40.5-4c11.3-0.7,22.7,0.1,33.9,1.3c25,2.8,49.7,8.3,74.2,13.6c20.7,4.4,41.6,9.4,62.8,10.2
			c21.3,0.8,41.6-4.1,62.1-9.1c12.8-3.1,25.7-5.9,38.8-7.8c16.9-2.5,33.3-0.6,49.7,3.8c13.9,3.8,26.9,10,40.6,14.1
			c14,4.2,28.3,7.2,42.9,7.8c14.6,0.6,29-1,42.9-5.2c14.5-4.4,28.3-9.6,43.4-11.2c13.7-1.5,27.4-1.7,41.1,0.1
			c13.7,1.8,27.3,5.1,40.7,8.4c25.9,6.4,51.9,13.8,78.8,10.3c20.1-2.6,40.6-8.7,58.9-17.6C654.9,68.1,653.3,66.9,651.9,67.6
			L651.9,67.6z"/>
	</g>
	<g>
		<path class="st0" d="M532,78.3c-13.3,0.8-26.5,2.3-39.5,4.7c-12.7,2.3-24.9,6.2-37.3,9.5c-26,7.1-53.3,10.3-80.1,6.8
			c-13.5-1.8-26.7-5.2-39.4-9.9c-11.2-4.2-21.8-9.8-32.9-14.1c-10-3.8-20.8-6.6-31.6-5.9c-9,0.6-17.8,3.3-26.2,6.3
			c-21,7.2-41.6,16.9-63.8,19.8c-20.2,2.6-38.7-1.8-58.1-6.4c-16.6-4-33.1-4.7-49.4,1C55,96.7,38,107.6,19,113.3
			c-23.1,7-48,5.4-71.6,2.7c-13.5-1.5-27-3.6-40.2-6.5c-1.1-0.2-3.4,1.4-1.7,1.7c29.7,6.6,61.6,10.9,92,8.1
			c20.4-1.9,38.7-10.3,57-19c8.5-4.1,17.1-8.1,26.3-10.6c9.6-2.6,19.5-2.5,29.2-1.1c17.7,2.5,34.2,9,52.2,9.6
			c22.1,0.7,42.6-5.7,63.2-13.3c20.1-7.5,40.4-16.9,62.3-11.9c12.6,2.9,24.1,8.9,35.9,14c11.3,5,23.1,8.9,35.2,11.6
			c27.9,6.2,56.1,4.6,83.9-1.2c14.3-3,28.1-8,42.4-11.1c15.3-3.3,31-5.2,46.6-6.1C533.2,80.1,534,78.2,532,78.3L532,78.3z"/>
	</g>
	<g>
		<path class="st0" d="M251.2,34.9c-21.8,3.7-44.8,3.4-66.6,0.6c-30.1-3.9-58.4-15.8-87.3-24.6c-10.8-3.3-21.7-6-32.7-8.1
			c-0.7-0.1-3.2,1-2.4,1.1c22.5,4.2,43.9,11.7,65.6,18.7c17.6,5.7,35.1,11.4,53.5,13.9c15,2,30.1,2.5,45.2,1.8
			c8-0.4,16.1-1,24.1-2.3C251.8,35.8,253.2,34.5,251.2,34.9L251.2,34.9z"/>
	</g>
	<g>
		<path class="st0" d="M163,68c-28.5,13.9-61.6,21.4-93.1,16.1C32.2,77.8-4.1,62.8-43,65.4c-18.7,1.3-36.5,6.4-54.9,9.5
			c-1.3,0.2-2.5,1.6-0.5,1.3c17.6-2.9,34.6-7.9,52.4-9.3c20.9-1.6,41,1.7,61.3,6.5c18.9,4.4,37.7,10,57,12.8
			c18.4,2.7,36.5,0.7,54.5-4c12.9-3.3,25.9-7.7,37.9-13.6C166.4,67.7,163.8,67.6,163,68L163,68z"/>
	</g>
	<g>
		<path class="st0" d="M43.7,78.5c-18.2,1.1-36.5,3-54.3,6.7c-6.5,1.4-12.8,3.5-19.3,5.1c-8.7,2.2-17.7,3.6-26.7,4.1
			c-13.7,0.7-27.1-1.1-40.6-3c-0.8-0.1-3.4,1.3-1.8,1.5c12.7,1.7,25.3,3.5,38.2,3.1c15.6-0.5,29.8-4.4,44.7-8.2
			C3,83.1,23,81.2,42.6,79.9C43.6,79.9,45.7,78.4,43.7,78.5L43.7,78.5z"/>
	</g>
	<g>
		<path class="st0" d="M-65.6,94.7c-10.5,6.5-21.7,12.1-33.1,16.6c-1.9,0.7-0.2,2.2,1.2,1.6c11.7-4.6,23.1-10.4,33.8-17
			C-62.1,94.9-64.5,94-65.6,94.7L-65.6,94.7z"/>
	</g>
	<g>
		<path class="st0" d="M-78.8,94.2c-5.4,3-12.9,4.4-19.1,5.2c-1.4,0.2-2.4,1.9-0.4,1.7c7.2-0.9,14.9-2.4,21.3-5.9
			C-75.3,94.2-77.8,93.7-78.8,94.2L-78.8,94.2z"/>
	</g>
	<g>
		<path class="st0" d="M-13.9,144.3c-27.3-6.9-55.5-12.2-83.7-14.2c-1.2-0.1-3,1.7-1.1,1.8c27.9,2,55.9,7.2,83,14.1
			C-14.7,146.3-12.3,144.8-13.9,144.3L-13.9,144.3z"/>
	</g>
	<g>
		<path class="st0" d="M7.5,209.1c-12.2-0.4-24.3-1.8-36.4-3.4c-23.2-3.2-46.6-8.1-68.1-17.7c-0.9-0.4-3.5,0.9-2.3,1.4
			c21.6,9.7,45.2,14.6,68.6,17.9c12.3,1.7,24.7,3.1,37,3.5C7.5,210.8,9.4,209.2,7.5,209.1L7.5,209.1z"/>
	</g>
	<g>
		<path class="st0" d="M-10.5,236.7C-37.8,250-67.8,261.5-98,265.2c-1.3,0.2-2.5,1.5-0.5,1.3c30.9-3.8,61.8-15.7,89.7-29.3
			C-7.1,236.4-9.8,236.3-10.5,236.7L-10.5,236.7z"/>
	</g>
	<g>
		<path class="st0" d="M-81.1,279.6c-5.5-1-11.1-2-16.6-3c-1.4-0.3-2.9,1.7-1,2.1c5.5,1,11.1,2,16.6,3
			C-80.7,281.9-79.1,279.9-81.1,279.6L-81.1,279.6z"/>
	</g>
	<g>
		<path class="st0" d="M-98.6,189.2c1.3,0,3-2,1-2C-98.9,187.3-100.6,189.2-98.6,189.2L-98.6,189.2z"/>
	</g>
	<g>
		<g>
			<path class="st0" d="M1358,348.2c-7.6,3.6-15.1,7.4-22.3,11.7c-1.3,0.8,1.6,0.6,2.3,0.2c7-4.2,14.3-7.9,21.7-11.4
				C1361.5,347.9,1358.8,347.8,1358,348.2L1358,348.2z"/>
		</g>
		<g>
			<path class="st0" d="M1359.3,359.6c-39,1-78.2-5-115.2-17.1c-35.2-11.5-69.6-24.7-106.8-28c-0.8-0.1-3.4,1.2-1.8,1.4
				c39,3.5,74.8,17.9,111.8,29.7c17.7,5.6,35.7,10,54.2,12.1c18.8,2.1,37.7,3.9,56.7,3.4C1359.1,361,1361.3,359.6,1359.3,359.6
				L1359.3,359.6z"/>
		</g>
		<g>
			<path class="st0" d="M1231.6,323.4c20.3,10.1,42.9,18,65.5,21.1c21.6,2.9,42.1-0.5,62.1-8.9c1.9-0.8,0.1-1.4-1.1-0.9
				c-20.8,8.8-42.1,11.7-64.5,7.6c-20.6-3.7-41-10.8-59.7-20.2C1233.3,321.8,1230.6,322.9,1231.6,323.4L1231.6,323.4z"/>
		</g>
		<g>
			<path class="st0" d="M1360.2,312c-19.8,1.1-39-3.5-57.7-9.8c-17.6-6-35-12.6-52.3-19.3c-18.3-7.1-36.6-14.6-55.3-20.7
				c-17.3-5.7-34.8-9.4-52.9-11.3c-31.5-3.3-63.7-2.3-95.1,2c-26,3.6-50.7,11.7-74.9,21.8c-17.8,7.5-35.5,15.7-52.5,24.9
				c-1.8,1,2.5,0.4,3.3,0c13.6-7.4,27.5-14,41.6-20.2c24.9-11,50.4-20.6,77.4-24.5c31.5-4.6,63.9-5.7,95.6-2.5
				c18.6,1.9,36.5,5.7,54.2,11.6c17.8,5.9,35.1,12.9,52.6,19.7c18.6,7.3,37.3,14.4,56.3,20.7c18.3,6.1,37.3,10.4,56.7,9.2
				C1358.2,313.6,1362.2,311.9,1360.2,312L1360.2,312z"/>
		</g>
		<g>
			<path class="st0" d="M1311.8,320.9c-6.5-2.9-13.8-4.4-20.7-6c-21.5-5.1-43.2-8.6-65.3-8.6c-42.3,0-84.1,12.4-126.4,7.6
				c-10.7-1.2-22.4-2.9-32.2-7.7c-0.8-0.4-3.5,0.8-2.3,1.3c7.2,3.5,15.6,5.2,23.4,6.6c18.9,3.3,38.1,3.1,57.1,1.1
				c21.4-2.2,42.6-5.7,64.1-6.9c23.9-1.3,47.2,1.2,70.6,6.1c9.7,2,20.2,3.9,29.3,7.9C1310.2,322.6,1312.9,321.4,1311.8,320.9
				L1311.8,320.9z"/>
		</g>
		<g>
			<path class="st0" d="M1024.2,300.6c-17,2.9-33.9,6.2-50.7,10.1c-13.6,3.1-27,7.1-40.5,10.8c-16,4.3-32.7,8.4-49.3,6.6
				c-0.9-0.1-3.4,1.4-1.8,1.6c29.4,3.3,58.3-9.4,86.3-16.2c18.4-4.4,36.9-8.1,55.6-11.3C1025.2,302,1026.2,300.3,1024.2,300.6
				L1024.2,300.6z"/>
		</g>
		<g>
			<path class="st0" d="M1254.4,285.7c-14.3,5.3-34.1,6.4-50.2,5.2c-16.3-1.2-32.3-5.3-48.1-9.4c-15.6-4-31.1-8.5-46.6-12.6
				c-29.4-7.7-58.6-13.9-89.1-10.2c-17.7,2.1-35.3,9.8-51.5,16.9c-9.3,4-18.4,8.6-27.5,13.1c-6.9,3.4-13.7,7.3-20.8,10
				c-1.9,0.7-0.2,2.2,1.3,1.6c6-2.3,11.8-5.6,17.6-8.4c8.7-4.2,17.3-8.5,26.1-12.6c8.6-4,17.5-7.3,26.3-10.6c8.2-3,16-6.1,24.7-7.5
				c32.4-5,63.9,2.2,95,10.5c30,8,60.5,18.8,91.6,21.2c17.2,1.3,36.1,0.4,52.4-5.6C1257.6,286.7,1255.9,285.2,1254.4,285.7
				L1254.4,285.7z"/>
		</g>
		<g>
			<path class="st0" d="M1359.8,266.2c-19.5,0.3-38.3-4.7-56.7-10.5c-18.3-5.7-36.3-12.5-53.8-20.3c-16.5-7.3-32.7-15.3-50.2-19.8
				c-17.2-4.5-34.9-5.7-52.7-4.5c-0.8,0.1-3.2,1.3-1.3,1.2c19.8-1.4,39.5,0.6,58.5,6.4c17.8,5.5,34.4,14.2,51.6,21.4
				c16.1,6.7,32.4,12.7,49.1,17.8c17.5,5.3,35.3,9.6,53.6,9.4C1358.6,267.4,1361.2,266.2,1359.8,266.2L1359.8,266.2z"/>
		</g>
		<g>
			<path class="st0" d="M1359.5,231.9c-28.3-1.4-54.9-9.6-81.7-17.9c-25-7.7-51.5-17.3-78-16c-19,0.9-36.5,7.6-54.4,13.3
				c-23.9,7.5-48,9.1-72.9,7.3c-13.9-1-28.4-2.7-41.8-6.9c-0.8-0.2-3.4,1-2.3,1.3c10.3,3.2,21.3,4.8,32,6.1
				c22.6,2.6,45.9,3.1,68.2-1.8c19.6-4.3,37.9-13.1,57.7-16.4c28.3-4.7,56.1,4.4,82.8,12.6c29.2,8.9,58,18.5,88.7,20
				C1358.5,233.3,1361,232,1359.5,231.9L1359.5,231.9z"/>
		</g>
		<g>
			<path class="st0" d="M1359.4,155.1c-23.6,0.4-45.3-7.3-67.8-13.4c-17.9-4.8-35.2-4.9-53.7-3.6c-21.3,1.5-42.6,3.9-64,4.7
				c-20.2,0.7-39.6-2.4-59.4-6.4c-23-4.6-46.3-10.3-69.8-10.2c-0.9,0-3.1,1.4-1.2,1.4c41.3-0.2,80.7,17.2,122,16.7
				c21.3-0.2,42.4-2.7,63.6-4.3c19.7-1.5,38.8-2.6,58,2.4c23.6,6.1,46.2,14.5,71,14.1C1359,156.4,1361.3,155.1,1359.4,155.1
				L1359.4,155.1z"/>
		</g>
		<g>
			<path class="st0" d="M1359.3,131.8c-38.6-0.2-74.9,12-112.3,19.6c-1.8,0.4-1.4,1.9,0.4,1.5c36.9-7.5,72.7-19.7,110.8-19.4
				C1359.3,133.5,1361.3,131.8,1359.3,131.8L1359.3,131.8z"/>
		</g>
		<g>
			<path class="st0" d="M1358.6,117.3c-13.6,3.5-26.1-1.9-38.5-7c-11.5-4.8-23.1-9.4-35-13c-21.3-6.5-43-9.7-65.2-6.4
				c-20.3,3-39.8,10.5-60.3,12.9c-20.7,2.5-40.4-2.6-60.4-7c-22.4-4.9-44.3-6.2-66.6,0.5c-1.7,0.5-1.4,1.7,0.3,1.2
				c22.5-6.7,44.4-4.7,67,0.3c18.4,4.1,36.8,8.5,55.9,6.7c20.1-1.9,39.1-8.9,58.9-12.5c25.1-4.5,49.4-0.7,73.4,7.2
				c12.9,4.3,25.2,9.7,37.9,14.7c10.8,4.3,21.5,6.5,33,3.6C1360.6,118,1360.3,116.8,1358.6,117.3L1358.6,117.3z"/>
		</g>
		<g>
			<path class="st0" d="M1340.9,117.8c-22.7-5.3-46.5-9.5-69.9-9.8c-12.5-0.2-24.5,1.7-36.2,6.3c-13.1,5.1-25.4,9.2-39.5,10
				c-20.2,1.1-40.4-1.9-60.3-5c-15.1-2.4-30.3-4.5-45.6-2.9c-18.5,1.8-36.5,7.5-54.4,11.9c-20.2,4.9-40.4,8.6-61.2,7.2
				c-30.2-2-61-9.9-89.2-20.9c-0.9-0.4-3.5,1-2.3,1.4c22.8,9,47.2,15.4,71.4,19.1c18.5,2.8,36.9,3.3,55.5,0.3
				c19.5-3.2,38.4-8.9,57.6-13.3c17.8-4.1,35.1-5.3,53.2-3c17.7,2.3,35.1,5.8,52.9,6.8c16.3,1,32.9,0.6,48.5-4.6
				c11.3-3.8,21.8-9.2,33.8-10.7c17.6-2.3,36.1,0.4,53.5,3.1c10.2,1.6,20.3,3.5,30.4,5.8C1340.2,119.7,1342.6,118.2,1340.9,117.8
				L1340.9,117.8z"/>
		</g>
		<g>
			<path class="st0" d="M1318.8,113.3c-11.6,0.2-23.2,0.7-34.7,1.4c-16,1-32.1,2.2-47.4,7.5c-8.2,2.9-16.2,6.2-24.5,8.6
				c-10.7,3.1-21.8,4.6-33,4.9c-19.3,0.4-38.8-3.4-57.7-7.2c-10.1-2-20.2-4.2-30.3-6.3c-6.1-1.3-12.3-2.8-18.6-3.2
				c-1.4-0.1-3,1.9-1,2c14.1,0.9,28.3,5.4,42.2,8.2c19,3.9,38.3,7.7,57.8,8.4c19.4,0.7,37.9-3.2,56-9.9c7.7-2.9,15.3-5.8,23.4-7.4
				c8.3-1.6,16.9-2.3,25.3-3c14.1-1.1,28.2-1.7,42.3-1.9C1320.1,115.3,1320.8,113.2,1318.8,113.3L1318.8,113.3z"/>
		</g>
		<g>
			<path class="st0" d="M1358.7,56.7c-13.7,3.1-29.1,2.8-43,1.7c-12-1-23.6-3.5-35.1-6.8c-6.5-1.9-13.2-4.4-20-4.3
				c-8.5,0.1-17.1,1.5-25.5,2.5c-29,3.5-58.2,6.5-87.4,4.7c-31.7-1.9-62.4-11.1-93-18.8c-33.7-8.4-68.8-15.9-103.7-11
				c-1.3,0.2-2.4,1.8-0.4,1.5c65.1-9.3,126.1,24.1,189.9,29.4c28.9,2.4,57.9-0.1,86.6-3.5c9.9-1.2,19.9-2.7,29.9-3.3
				c7.5-0.4,14.7,2.1,21.9,4.1c12.2,3.5,24.5,6.1,37.1,7c14.1,1,29.4,1.2,43.2-2C1360.8,57.6,1360.4,56.3,1358.7,56.7L1358.7,56.7z"
				/>
		</g>
		<g>
			<path class="st0" d="M1223.7,35.8c-21.3,3.6-43.8,3.4-65.2,0.8c-31.1-3.8-60.3-16-90.1-25.2c-11.1-3.4-22.2-6.2-33.6-8.3
				c-1-0.2-3.4,1.3-1.8,1.6c22.9,4.3,44.7,11.9,66.8,19.1c17.6,5.7,35.1,11.5,53.6,14c15.4,2.1,30.9,2.6,46.4,1.9
				c7.8-0.4,15.7-0.9,23.5-2.3C1224.7,37.2,1225.7,35.5,1223.7,35.8L1223.7,35.8z"/>
		</g>
		<g>
			<path class="st0" d="M1359.6,372.8c-14.9-3.8-30-7.3-45.3-9.1c-17.5-2.1-35.3-2.4-52.9-2c-17.7,0.4-35,2.5-52.4,5.4
				c-18,3-36.2,6.2-54.5,6c-18.6-0.1-36.6-4.9-54.6-9.1c-8.5-1.9-17-3.8-25.6-4.9c-8.6-1.2-17.4-1.5-26-2.8
				c-32-4.8-62.2-17.3-94.2-22c-36.1-5.3-71.3,5.5-102.1,23.9c-1.7,1,0.9,1.4,1.8,0.8c15.3-9.1,32.4-17.3,49.9-21.1
				c16.3-3.5,33.6-4.4,50.1-1.8c30.8,4.8,60.1,16.6,91,21.5c7.7,1.2,15.5,1.7,23.3,2.5c8.9,0.9,17.7,2.7,26.5,4.6
				c16.1,3.6,32.2,8.2,48.7,9.5c34.4,2.8,68-8,102-10.3c20.2-1.4,40.9-1.2,61.1,0.6c17.4,1.6,34.5,5.3,51.4,9.7
				C1358.8,374.6,1361.3,373.3,1359.6,372.8L1359.6,372.8z"/>
		</g>
		<g>
			<path class="st0" d="M1166.4,347.6c-37.9,8.6-78.4,10.7-117,8c-14.6-1-28.9-2.6-43.5-0.2c-13,2.2-25.6,7.2-38.1,11.3
				c-13.7,4.6-27.6,8.9-42,10.4c-15.2,1.6-30.2-0.7-45-4.3c-14.5-3.5-28.8-7.6-43.6-9.7c-14.5-2.1-29.2-2.8-43.9-3
				c-15.4-0.2-30.8,0.3-46.1,2.1c-14.3,1.7-28.4,4.6-42.6,6.6c-15.2,2.2-30.8,3.7-46.1,2.2c-14.8-1.4-29.3-5.4-43.8-8.7
				c-14.6-3.3-28.9-4.8-43.7-6.5c-14.6-1.7-28.9-5-43.1-8.7c-26.1-6.8-52.4-16.3-79.7-15.3c-30.1,1.1-59.3,10.6-84.8,26.4
				c-1.7,1,0.7,2.2,1.9,1.4c24.8-15.4,53.4-24.6,82.6-25.6c25.7-0.9,50.4,7.7,74.9,14.2c13.2,3.5,26.6,6.8,40.1,8.8
				c13.9,2.1,27.8,2.6,41.6,5.5c14.6,3,29,7,43.8,9.5c14.3,2.3,28.6,2.2,43,0.7c14.3-1.5,28.4-4.1,42.5-6.4
				c15.2-2.4,30.5-3.7,45.8-4c15.1-0.2,30.4,0.1,45.5,1.6c15.4,1.5,30.3,4.9,45.3,8.7c13.4,3.4,27,6.7,40.9,7.2
				c13.1,0.4,26-1.9,38.6-5.4c13.6-3.7,26.8-8.8,40.2-13c15.4-4.8,30.6-6.2,46.7-4.8c43,3.7,87.7,2.4,130.1-7.1
				C1168.7,349.3,1168.2,347.2,1166.4,347.6L1166.4,347.6z"/>
		</g>
		<g>
			<path class="st0" d="M1241.1,341.8c-5.3,3.2-11.8,4.9-17.8,6.2c-18.2,4-37,2.9-55.2-0.1c-39.3-6.6-76.9-21.8-116.6-26.2
				c-20.6-2.3-41.7-1-62,2.7c-20.5,3.7-39.6,10.7-58.9,18.2c-21.3,8.4-43.2,16.5-66.4,15.7c-22.3-0.8-45.2-2.4-67-6.9
				c-24.5-5.1-48-14.2-71.7-22c-23.6-7.8-47.6-14.1-72.4-16.3c-1.2-0.1-3.1,1.6-1.1,1.7c46.8,4.2,88.9,24.8,134,36.1
				c21.5,5.4,43.8,7.4,65.9,8.7c10.8,0.7,21.6,1.1,32.4-0.8c9.7-1.8,19.2-4.5,28.5-7.7c20.7-7.2,40.6-16.8,61.9-21.9
				c23-5.6,47-8,70.6-6.2c19.5,1.5,38.5,6.6,57.3,11.5c21.1,5.5,42.2,11.4,63.7,15c18.6,3.1,37.8,4.2,56.4,0.2
				c6.8-1.4,14.2-3.4,20.2-7C1244.6,341.8,1242.1,341.2,1241.1,341.8L1241.1,341.8z"/>
		</g>
		<g>
			<path class="st0" d="M747.7,322.3c35.6,17.8,81.1,31.4,119.6,15.3c9.8-4.1,19-9.5,28.5-14.3c9.8-4.9,19.7-9.4,30-13.2
				c22.1-8.2,45.5-12.7,69.1-11.4c22.3,1.2,44.1,7.1,66.3,8.7c17.2,1.3,34.2-1,51-4.7c31.1-7,60.5-19.4,91.3-27.3
				c25.5-6.5,51.6-10.4,78-9.2c26,1.2,50.8,8.3,76.3,13c1.1,0.2,3.4-1.5,1.7-1.8c-21.2-3.9-42-9.8-63.5-12.1
				c-22.2-2.4-44.6-1.3-66.5,2.5c-32.6,5.8-63.2,18.1-94.9,27.2c-16.9,4.9-34.2,9.2-51.8,10.5c-21.7,1.7-43.1-3-64.4-6.2
				c-20.9-3.1-41.5-3.7-62.3,0.3c-21.2,4.1-41.4,12.2-60.7,21.8c-10.6,5.3-20.8,11.4-31.9,15.7c-12.8,5-26.4,6.4-40,5.5
				c-25.3-1.7-51-10.5-73.5-21.8C748.9,320.3,746.3,321.7,747.7,322.3L747.7,322.3z"/>
		</g>
		<g>
			<path class="st0" d="M1357.8,296.9c-16.1,8.9-32.3,18-49.6,24.3c-16.6,6-34,6.9-51.4,4.8c-26-3-50.7-12.2-75.1-21.3
				c-29.9-11.2-60.4-20.8-92.3-24.2c-32.4-3.5-65-5.9-97.4-1.4c-17.8,2.5-35.1,6.9-52.1,12.8s-33.8,12.8-51.4,16.8
				c-37.1,8.3-74.3-8.4-108.4-21.3c-34.5-13.1-68.9-29.4-105.5-35.5c-32.4-5.4-65.8-5.4-98.4-2.1c-25.9,2.6-50.4,8.5-74.8,17.9
				c-20.1,7.7-39.9,16.8-59,26.8c-1.1,0.6-2.1,1.1-3.2,1.7c-1.7,0.9-0.2,2.4,1.3,1.6c37.8-20.5,79.1-38.6,121.9-44.4
				c31.7-4.3,64.1-5.2,95.9-1.6c38.1,4.3,73,19.3,108.4,33c16.8,6.5,33.7,12.9,50.9,18.6c15.9,5.3,32.4,9.7,49.2,9.7
				c17.7,0.1,34.8-5.7,51.3-11.5c17.6-6.2,35-12.7,53.2-16.8c33.9-7.6,68.3-7.1,102.6-3.8c17.9,1.7,35.6,4.1,53.1,8.5
				c15.4,3.9,30.4,8.9,45.3,14.3c22.7,8.3,45.2,17.3,68.9,21.9c16.3,3.2,33.4,4.6,50,1.9c15-2.4,29.2-9.1,42.7-15.9
				c8.4-4.2,16.7-8.7,24.9-13.3C1360.8,297.6,1359.3,296.1,1357.8,296.9L1357.8,296.9z"/>
		</g>
		<g>
			<path class="st0" d="M1288,250.4c-14.6-3.5-29.6-6.1-44.6-7.6c-11.6-1.2-23.1-1.4-34.7-0.2c-11.4,1.2-22.6,3.4-34,4
				c-21.4,1.1-43.2-4.9-64.3-8c-24.9-3.7-50.1-6.1-75.3-4.6c-25.1,1.5-50.2,5.8-74,13.8c-23.3,7.9-44.8,19.7-65.5,32.8
				c-22.8,14.5-45.3,30.8-71.2,39.6c-25.5,8.7-52.9,6-78.5-0.7c-37.7-9.8-72.9-27.3-111.1-35.6c-23.2-5.1-47.4-7.2-71.1-8.3
				c-23.2-1.1-46.3,0-69.1,4.5c-26.6,5.2-51.1,16-76.9,23.8c-28.4,8.6-56,8.2-84.2-0.8c-49.9-16-96.8-43.3-149-51.6
				c-41.8-6.7-87-5.8-128.6,2.8c-34.3,7.1-67.3,22.3-98.3,38.2c-2.3,1.2-4.5,2.3-6.7,3.5c-1.7,0.9-0.2,2.3,1.2,1.6
				c24.9-13.5,51.2-25.3,78-34.2c40-13.3,84.1-16,126-13c27,1.9,52.8,7.6,78.2,17c24.7,9.2,48.9,19.8,73.6,29.1
				c23.7,8.9,47.8,17.2,73.5,16c25.3-1.2,48.7-10.7,72.3-19c25.3-8.9,51.4-14.6,78.2-15.9c23.6-1.2,47.2,0.9,70.7,3.4
				c42,4.5,79.9,20.2,119.4,33.6c20.6,7,42,12.5,63.8,13.1c23.1,0.6,44.1-6,64.4-16.8c23.1-12.2,44.1-28,66.7-40.9
				c23-13.1,47.3-22.7,73.2-28.2c26.8-5.7,54.3-7.5,81.6-5.6c23.2,1.6,46.2,5.6,69.1,9.4c9,1.5,18,3,27.1,3.1
				c11.4,0.1,22.7-1.9,34-3.4c23.4-3.1,46.4-0.6,69.5,3.7c5,0.9,10,2,14.9,3.1C1287.5,252.6,1289.7,250.8,1288,250.4L1288,250.4z"/>
		</g>
		<g>
			<path class="st0" d="M895.2,282c-25.9-4.9-50.9-13.5-77-17c-24.5-3.3-49.2-2.4-73.5,2c-38,6.8-73.5,22.5-110.9,31.6
				c-21.8,5.3-43,7.6-65.4,4.9c-24.4-3-48.4-9-73.1-7.7c-22.3,1.2-44,7.1-64.5,15.7c-22.3,9.3-42.8,23.8-66.4,29.5
				c-23,5.6-47.7,0.4-69.8-6.8c-11.3-3.7-22.6-8-33.1-13.4c-0.7-0.4-3.4,0.7-2.3,1.3c24.4,12.4,52.8,21.5,80.2,22.5
				c22,0.8,41.8-6.9,61.1-16.9c22.2-11.5,44.6-22.1,69.3-27.2c25.8-5.4,50.8-2.9,76.5,1.3c21.8,3.6,43.1,6,65,2.6
				c36.5-5.6,70.2-20.4,105.6-29.9c29.4-7.9,59.7-12,90.1-9.2c29.6,2.7,57.6,12.6,86.6,18.1C894.2,283.6,896.7,282.3,895.2,282
				L895.2,282z"/>
		</g>
		<g>
			<path class="st0" d="M979,227.6c-9.8,4.8-18.9,10.9-28.7,15.5c-9.6,4.5-19.6,8.5-29.6,12.1c-22.2,8-44.8,12.3-68.4,8.4
				c-22.1-3.7-43.3-11.2-64-19.6c-19.9-8.1-39.2-18.2-59.5-25.4c-21.6-7.7-44.1-10.4-66.9-8.8c-1.4,0.1-2.4,1.7-0.4,1.6
				c23.7-1.6,47.1,1.7,69.3,10.2c20.5,7.8,40.1,17.8,60.5,25.9c20.3,8,41.2,15,62.9,18.2c20.2,3,40.1-0.3,59.4-6.5
				c11.4-3.7,22.6-8,33.5-12.9c11.4-5.1,21.8-11.9,33-17.5C981.9,227.8,980.3,227,979,227.6L979,227.6z"/>
		</g>
		<g>
			<path class="st0" d="M1359.9,249c-23.7-2.1-45.2-10.5-67.7-17.9c-21.9-7.2-44-14.1-66.3-20.1c-40.8-11-84.2-20.5-126.7-16.7
				c-23.6,2.1-46.4,8.9-68.6,16.7c-26,9.1-52.3,17.4-79,24.1c-28.7,7.1-58.7,11.3-88.1,5.3c-26.4-5.4-51.8-15.7-77.8-22.8
				c-26.1-7.2-52.6-13.1-79.4-17.4c-25.9-4.2-52.5-8.3-78.8-7.7c-50.2,1.1-94,24.1-140.1,40.8c-27.3,9.9-55.5,15.9-84.6,15.2
				c-27.7-0.6-53.3-8-79.4-16.9c-50.3-17.3-102-33.6-155.3-38.2c-40.3-3.5-77.8,3.7-115.2,18.3c-37.1,14.5-73,30.9-113,36.2
				c-12.3,1.6-24.8,2.4-37.2,2.2c-0.7,0-4.1,1.4-2.4,1.4c39.9,0.6,78.2-8.9,115-23.4c35.4-13.9,69.9-30.3,108.3-33.6
				c55-4.7,110.8,10.7,162.8,27c25.9,8.1,51.2,19,77.8,24.3c23.1,4.6,46.9,5.2,70.2,2c51.6-7.1,96.1-35.5,146.2-47.8
				c30-7.4,59.5-7.1,90-3.3c26.4,3.3,52.5,7.7,78.4,13.6c26.3,6,52.1,13.8,77.8,21.9c24.3,7.7,48.1,13.4,73.8,12.1
				c51.6-2.7,100.3-23.6,149.1-38.7c24.7-7.6,49.8-11.8,75.7-10.6c22.9,1,45.7,4.9,68.1,9.9c44.3,9.9,87.1,24.6,130.1,38.9
				c11.1,3.7,22.4,5.4,33.9,6.5C1358.3,250.5,1361.7,249.2,1359.9,249L1359.9,249z"/>
		</g>
		<g>
			<path class="st0" d="M1344.9,180.8c-16.5,6.2-36,6.9-53.3,5.8c-28-1.9-55.1-11.7-82.5-17.3c-29.3-6-58.1-6.4-87.6-1.9
				c-30.3,4.6-59.8,13.4-88.7,23.4c-29,10.1-57.4,21.8-87.1,29.6c-31.3,8.2-62.9,10.8-94.9,4.9c-30.7-5.7-60.5-15.4-90.8-22.8
				c-14.5-3.6-29.3-6.5-44.3-5.9c-10.8,0.5-21.4,2.7-31.7,5.9c-11.7,3.5-23.1,7.9-34.9,10.9c-16.2,4.1-32.8,5-49.5,4.4
				c-17.7-0.6-36.3-2.3-53.3-7.6c-1-0.3-3.4,1.1-1.8,1.6c13.4,4.2,27.8,5.9,41.6,7c26.5,2.1,52.1,0.1,77.4-8
				c10.7-3.4,21.3-7.4,32.3-9.9c14.5-3.3,29.1-3.3,43.8-0.8c31.6,5.4,62.1,16.2,93.4,23.5c29.6,6.8,58.8,8.9,88.8,3.6
				c29.4-5.1,57.5-15.3,85.3-25.6c60.4-22.3,125.2-44,190.3-32.6c27.9,4.9,55,14.5,83.1,18.3c20.4,2.7,42.3,1.9,62.1-4.1
				c1.1-0.3,2.2-0.7,3.3-1.1C1347.9,181.3,1346.2,180.3,1344.9,180.8L1344.9,180.8z"/>
		</g>
		<g>
			<path class="st0" d="M1358.4,198c-21.3,5.8-43.2,10-65.3,6.9c-22.9-3.2-44.6-12.5-67.5-15.5c-17.5-2.3-34.3,0.5-51.1,5.4
				c-21.7,6.3-42.9,10.5-65.7,9c-50.7-3.4-99.2-22.8-150.4-21.9c-25.2,0.4-49.8,7.1-73.7,14.4c-14.1,4.3-28,8.3-42.6,10.4
				c-14.7,2.1-29,0.9-43.4-2.6c-21.6-5.2-42.5-15.1-64.9-16.6c-16.9-1.1-32.9,3.1-49,7.8c-22.4,6.5-44.7,9.1-67.9,6.6
				c-24.7-2.6-49-8.7-73.3-13.5c-26.2-5.1-52.6-8.7-79.4-7.5c-26.8,1.3-51.9,7.4-77.4,15.3c-29.2,9.1-58,11-87.9,4
				c-24.6-5.7-47.5-15.5-73.3-11.8c-12.1,1.7-23.8,5.3-35.6,8.5c-14.1,3.7-28,6-42.7,6c-24.8-0.1-49.2-5.7-73.3-10.7
				c-25.1-5.2-50.4-10.3-76.2-11.4c-22.9-1-45.8,1.2-68.2,6.2c-9.5,2.1-18.8,4.8-28.1,7.6c-1.7,0.5-1.4,1.8,0.3,1.2
				c21.4-6.4,43.1-11.6,65.5-13.2c27.5-2,54.8,1.2,81.8,6.3c24.6,4.7,48.9,10.8,73.8,13.8c22.9,2.8,45,1.2,67.3-4.7
				c14.2-3.8,28.5-8.4,43.3-9.2c15-0.8,29.5,3.2,43.7,7.3c24,6.9,48.2,11.8,73.3,9.4c27.6-2.7,53-15,80.2-19.7
				c29.1-5,58.3-4.6,87.4-0.2c46.5,7,93.7,24.3,141.3,16.8c17.5-2.8,34-9.8,51.5-12.6c24-3.8,45.7,3.6,68.3,10.6
				c23.1,7.2,45,10.6,69,6.4c26.7-4.7,51.9-15.4,78.6-20.4c54-10.1,106.3,8.2,159.2,16.3c21.3,3.3,42.9,4,64.1-0.3
				c17.1-3.5,33.5-10.5,51-12.1c24.5-2.3,47.3,6.4,70.7,12.2c20.9,5.1,40.9,6.2,62.1,2.3c8.2-1.5,16.4-3.4,24.4-5.6
				C1360.5,198.8,1360.2,197.5,1358.4,198L1358.4,198z"/>
		</g>
		<g>
			<path class="st0" d="M980.5,210.5c-21.7-0.9-43.5-3.5-64.6-8.5c-19.8-4.7-37.3-14-55.3-23.2c-17.8-9-37.4-13.3-57.2-15.3
				c-19.1-1.9-38.9-2-57.7,2c-17.8,3.7-35.1,9.4-52.7,13.7c-8.2,2-16.6,3.9-25.1,4.4c-11.5,0.6-22.8-2.2-33.7-5.5
				c-17.5-5.2-34.8-11-52.4-15.9c-15.5-4.2-30.7-7.1-46.8-5.1c-20,2.5-39.6,8.2-59.5,11.6c-20.7,3.5-41.8,5.4-62.7,6.2
				c-22.2,0.8-44.5-0.5-66.2-5.6c-15.1-3.6-30-8.3-45-12.6c-27.9-7.9-55.6-11.1-84.6-9.6c-36.6,1.9-72.9,7.6-109.5,9.3
				c-15.6,0.7-31.1,0.5-46.7-1c-17.3-1.8-34.5-5.1-51.7-7.8c-12.9-2.1-26-3.8-39.1-3.4c-15.6,0.5-30.8,4.6-46.1,7.7
				c-7.1,1.4-14.2,2.7-21.5,3.2c-0.9,0.1-3.1,1.5-1.2,1.3c15.9-1,31.5-5.4,47-8.4c13.5-2.6,27-3,40.7-1.6
				c31.5,3.3,62.3,11.2,94.2,11.7c33.9,0.6,67.6-3.9,101.3-7.1c33.7-3.1,66.9-5,100.1,3c32,7.7,62.6,19.5,95.8,21.7
				c40.2,2.7,81.1-2.5,120.4-10.8c18.3-3.9,36.7-9,55.5-6.6c18.4,2.4,36.5,8.8,54.2,14.3c17.4,5.4,35.5,12.7,54,12.3
				c15.6-0.3,31.2-5.1,46.1-9.3c19.6-5.4,39.1-11.1,59.6-11.8c22.1-0.8,44.4,1.4,65.8,7.3c19,5.2,35.3,16.8,53.4,24.2
				c18.8,7.7,38.7,11.4,58.7,13.9c10.2,1.3,20.4,2.1,30.7,2.6C979.3,211.8,982,210.5,980.5,210.5L980.5,210.5z"/>
		</g>
		<g>
			<path class="st0" d="M1359.6,186.7c-20.9-10-41.6-18.3-64.6-21.5c-19.2-2.6-39.2-3.2-58.4-0.3c-20.3,3-40,10.1-59.9,15
				c-10.8,2.7-22.1,5.2-33.3,4.3c-12.7-1-24.9-5.1-37-8.9c-20.7-6.4-41.7-14.2-63.2-17.3c-21.1-3.1-41.6,3-62.1,7
				c-52.3,10.3-104.9,15.1-156.9,1c-32.3-8.7-63.2-19.2-97.1-19.8c-44.8-0.8-89.2,8-133.9,9.8c-19.5,0.8-38.8-0.1-58.1-2.9
				c-19.9-2.9-39.6-7.2-59.6-8.9c-17.2-1.5-33.5,0.9-50.3,4.5c-13.3,2.8-26.6,5.9-40.3,5.5c-13.7-0.4-27.2-3.4-40.4-7
				c-20.8-5.6-40.4-12-62.2-11.6c-20.6,0.4-41,2.9-61.5,4.4c-19.7,1.5-38.8,1.9-58.4-1.3c-21.2-3.5-42.1-8.7-63.4-11.9
				c-9.1-1.3-18.2-2.2-27.4-2.2c-1.7,0-2.2,2.2-0.2,2.2c40.5-0.1,79.1,16.8,119.6,16.8c20.5,0,40.9-2.3,61.3-3.9
				c20.7-1.7,41.3-3.4,61.7,1.5c23.5,5.6,46.1,14.6,70.5,15.3c22.9,0.6,44.5-8.1,67.1-10.1c16.9-1.5,33.6,1.1,50.3,3.9
				c20.6,3.4,41.2,7.1,62,8.1c41.5,1.8,83-4.6,124.3-8.1c21.1-1.8,42.3-2.7,63.3,0.1c16.1,2.1,31.7,6.5,47.3,11.1
				c19.9,5.8,39.9,11.7,60.6,14.2c24.8,3,50,2.2,74.8-0.7c25-3,49.4-8.5,74.1-13.2c11-2.1,21.9-3.1,33-1.6c11.6,1.6,22.8,4.9,34,8.2
				c21.2,6.2,42.8,15.6,64.8,17.9c19.9,2.1,40-4.8,58.9-10c19.4-5.4,38.3-10.2,58.5-10.7c22.5-0.6,45.9,1.7,67.3,9
				c11.4,3.9,22.4,9.1,33.2,14.3C1359.1,189.3,1361.2,187.5,1359.6,186.7L1359.6,186.7z"/>
		</g>
		<g>
			<path class="st0" d="M1359.9,175.7c-28.4-0.6-55.2-9.3-82.3-17.1c-20.3-5.8-40.6-10.1-61.7-10.8c-54.7-1.8-108.8,11.7-163.5,9.8
				c-25.4-0.9-50.1-6.3-75.1-10.1c-21.5-3.3-44-2.8-65.3,2c-8.7,2-17.3,4.3-26.3,4.9c-8.9,0.6-17.9,0.1-26.7-1.2
				c-16.3-2.4-31.9-7.4-47.7-11.9c-12.8-3.6-25.3-5.6-38.6-5.4c-12.6,0.2-25.3,1.3-37.9,2.4c-25.9,2.2-52.1,5.3-78,1.4
				c-25.9-3.8-51.2-10.9-77.2-13.8c-6.1-0.7-12.2-1.1-18.3-1.1c-0.8,0-4.1,1.5-2.3,1.5c26.7-0.1,53.1,7.2,79.2,12.1
				c11.5,2.2,23.1,4.2,34.8,4.6c12.4,0.4,24.8-0.4,37.1-1.4c13.4-1,26.8-2.3,40.3-3.3c12.7-0.9,25.7-2,38.3-0.2
				c16,2.3,31.3,8.2,46.9,12.2c14.7,3.7,29.7,6.3,44.8,5.7c16.2-0.6,31.5-6.1,47.5-7.9c11.1-1.2,22.3-1.8,33.5-0.9
				c23.7,2,46.9,8.2,70.7,10.5c53.7,5.3,107.1-6.3,160.7-8.5c23.7-1,46.9,1.2,69.9,7.2c23.9,6.2,47.4,14.9,72,18.5
				c7.6,1.1,15.3,1.8,23.1,2C1358.4,177.2,1361.7,175.7,1359.9,175.7L1359.9,175.7z"/>
		</g>
		<g>
			<path class="st0" d="M965.6,145.9c-17-2.1-33.6-6.2-50.3-9.5c-17-3.4-34.3-7.7-51.6-8.2c-16.5-0.5-32.8,2.7-48.7,6.7
				c-17.5,4.5-34.3,11.4-51.9,15c-1.8,0.4-1.3,2.3,0.5,1.9c17.1-3.6,33.3-10.2,50.2-14.6c17.2-4.5,34.9-8,52.8-6.9
				c16.6,1,33.1,5.1,49.4,8.4c16.2,3.3,32.3,7.2,48.8,9.2C966,148.1,967.5,146.1,965.6,145.9L965.6,145.9z"/>
		</g>
		<g>
			<path class="st0" d="M1359.4,101.9c-16.1-0.3-32.3-4.2-47.4-9.7c-12.6-4.6-24.4-11.1-37-15.9c-10.8-4.2-22.6-6.8-34.2-5.4
				c-11.1,1.3-21.8,5.3-32.2,9.2c-13.5,5-27,10.4-41,13.9c-14.3,3.6-29.1,4.4-43.7,2.5c-21.1-2.8-41-12.1-62.7-9
				c-23.3,3.3-43.3,18.1-65.3,25.6c-15.1,5.2-30.6,6.8-46.5,5.5s-31.6-6.1-47.5-6.3c-16.9-0.2-33.3,6.2-50.1,2.2
				c-15.3-3.7-29.7-11.5-44.7-16.5c-14.4-4.8-29.4-8.7-44.6-9.7c-13.3-0.9-26.6,0.8-39.6,3.6c-12.9,2.8-25.6,6.7-38.7,9.1
				c-13.5,2.5-26.9,2.6-40.5,0.5c-24.9-3.9-48.7-12.6-74.2-9.9c-7.1,0.7-14.1,2.3-21,4.3c-1.7,0.5-1.3,2.3,0.5,1.8
				c14.3-4.3,29-5.6,43.9-3.9c12.7,1.4,25,4.7,37.4,7.4c11.8,2.5,23.8,4.4,35.9,4c12.5-0.5,24.8-3.3,36.9-6.4
				c13.3-3.4,26.7-6.9,40.4-8.2c16.1-1.5,31.9,0.9,47.5,5c15.7,4.1,30.7,10.3,45.7,16.4c6.4,2.6,12.9,4.9,19.8,5.7
				c7.7,0.9,15.5,0,23.1-1c8.4-1.1,16.6-2.7,25-2.1c8.1,0.5,16,2.2,24,3.6c15.2,2.6,30.8,4.3,46.2,2.2c24.8-3.3,45.6-16.7,68.5-25.7
				c11.6-4.5,23-6.2,35.5-5c10.4,1.1,20.4,4.2,30.6,6.6c25.3,5.9,50,3.4,74.5-4.8c23.8-8,48.9-22.5,74.7-17.4
				c13.1,2.6,25,8.8,37.1,14.2c13.1,5.9,26.7,10.5,40.8,13.4c7.3,1.5,14.6,2.4,22,2.5C1359.6,103.8,1361.4,101.9,1359.4,101.9
				L1359.4,101.9z"/>
		</g>
		<g>
			<path class="st0" d="M1135.6,69.1c-29,14.2-63.1,21.8-95.1,15.8c-20.5-3.8-40.2-11.1-60.8-14.7c-19.8-3.4-40.1-3.8-59.8,0.2
				c-20.2,4.1-39.1,14.8-59.7,16.7c-20,1.8-41.6-3.7-60.4-10.1c-17.4-5.8-34.4-12.7-52-17.3c-19.6-5.1-37.8-4.4-57.6-0.7
				c-32.5,6-63.3,17.4-96.9,14.1c-43.1-4.2-84.5-18.5-127.6-23.1c-20-2.1-39.6-1.7-59.5,1.4c-22.9,3.6-45.3,7.6-68.7,5.5
				c-11.1-1-21.9-3.5-32.6-6.3c-8.1-2.2-15.2-4.9-23.7-4.1c-22,2.2-43.8,5.4-65.9,6.7c-21.6,1.3-43.3,0.9-64.6-2.6
				c-17.5-2.9-34.8-7.5-51.9-11.9C64.5,29.8,29.6,19.8-6.1,19.4c-7.9-0.1-15.8,0.4-23.6,1.5c-1.3,0.2-2.5,1.7-0.4,1.4
				c37-5.2,74.7,4.3,110.3,13.5c36,9.3,71.5,19.3,109,19.7c21.4,0.2,42.8-1.8,64.1-4.3c5-0.6,10-1.2,15-1.8
				c6.5-0.8,13.7-2.4,20.2-1.3c9.6,1.6,19,5.4,28.6,7.5c20.2,4.4,41.1,4.5,61.6,1.8c22.1-2.9,43.5-7.9,65.9-7.2
				c44.5,1.5,87.1,15.4,130.8,22.4c16.7,2.7,33.4,3.9,50.3,1.8c14.6-1.8,28.9-5.9,43.2-9.3c20.7-4.9,42.4-10,63.8-6.6
				c20,3.1,39.1,11,58,17.7c17.1,6,34.3,10.6,52.4,12.4c19.2,1.9,36.1-3.8,54-10c22.5-7.7,45.2-10.9,68.9-8.4
				c21.3,2.3,41.5,9.2,62.3,14.1c19.5,4.6,38.5,5.8,58.2,2.1c15.1-2.8,29.8-7.4,43.9-13.3c2.4-1,4.7-2,7-3.2
				C1139.1,69,1136.5,68.7,1135.6,69.1L1135.6,69.1z"/>
		</g>
		<g>
			<path class="st0" d="M1016,79.5c-18.4,1.1-36.9,3.4-54.8,8.1c-18.7,4.9-36.9,10.6-56.1,13c-19.4,2.4-39.1,0.7-58-3.8
				c-16.9-4.1-32.2-11.3-48-18.3c-12.1-5.3-25.1-9.7-38.5-9c-12.8,0.7-25.3,5.6-37.2,10c-15.5,5.7-31,12-47.2,15
				c-15.8,3-32.1,2.2-47.7-1.3c-11.2-2.5-22.2-6.1-33.7-7.1c-12.3-1.1-23.7,0.7-35.2,5.1c-13.2,5-25.5,12-38.5,17.4
				c-16.6,6.8-33.5,10.1-51.5,9.1c-10-0.6-20-2.2-29.8-4c-7.9-1.5-15.9-3.1-24-2.8c-8.6,0.3-17,2.5-25.5,4.1
				c-10.2,1.9-19.9,2.1-29.9-0.9c-8.5-2.6-16.5-6.6-24.7-10c-8.1-3.3-16.4-6.2-24.8-8.7c-16.1-4.8-32.9-8.1-49.7-7.3
				c-31.2,1.4-60.4,16.6-91.8,14.9c-28.8-1.5-55.8-13.8-85-11.7c-8.2,0.6-16.3,2.2-24.2,4.6c-1.7,0.5-1.3,2.2,0.4,1.7
				c16.5-4.9,33.3-5.7,50.3-3.1c14.3,2.2,28.1,6.4,42.4,8.7c14.2,2.3,28.3,2.3,42.5-0.3c14.5-2.7,28.6-7.2,43.1-10.1
				c18.1-3.6,35.8-3.6,53.9,0.3c18.3,3.9,35.6,10.5,52.7,17.9c7.3,3.1,14.7,6,22.6,7.1c7.6,1.1,15.1,0.2,22.6-1.2
				c9.9-1.9,19.6-4.5,29.8-4c9.4,0.5,18.7,2.9,27.9,4.4c16.4,2.6,33.1,3.8,49.5,0.5c14.2-2.9,27.5-8.7,40.5-14.9
				c12.3-5.9,24.8-12.4,38.4-14.5c13.2-2,26.6,0.7,39.3,4c12.4,3.2,24.7,5.8,37.7,6c15.5,0.2,30.3-3,44.9-7.8
				c14.6-4.8,28.7-11,43.4-15.4c14.6-4.4,28.3-4.6,42.9,0.2c14.7,4.9,28.1,12.7,42.6,17.9c16.5,5.9,34.2,9.4,51.7,10.2
				c18,0.9,35.9-1.9,53.4-6c18.8-4.4,36.8-10.5,56-13.3c9.1-1.3,18.2-2.2,27.4-2.7C1017.1,81.2,1018,79.4,1016,79.5L1016,79.5z"/>
		</g>
		<g>
			<path class="st0" d="M1358.7,79.7c-19.7,4.7-40.1,4.5-60,0.9c-18.9-3.4-36.6-10.4-54.9-16.2c-15.9-5.1-32.4-8.8-49.2-7.3
				c-15.9,1.4-31.6,5.2-47.1,8.9c-12.7,3.1-25.3,6.5-38.3,8c-14.8,1.8-29.9,1.1-44.6-1.4c-30.3-5.3-59.3-15.5-90.1-18.5
				c-15.3-1.5-30.7-1.6-45.8,1.2c-15.3,2.9-30.2,7.5-45.5,10.8c-16.2,3.5-32.4,4.5-48.6,0.8c-12.9-2.9-24.5-9-36.5-14.2
				c-9.3-4.1-19.1-8-29.4-8.2c-8.4-0.1-16.8,1.8-24.9,3.8c-10.5,2.6-20.8,5.4-31.5,7c-14.4,2.2-29.1,2.4-43.5,0.5
				c-15.7-2-30.9-6.5-46.2-10.7c-15.6-4.3-31.2-8.6-46.9-12.5c-31.1-7.7-63.1-14.3-95.3-13.6c-7.2,0.1-14.4,0.7-21.5,1.7
				c-1.4,0.2-2.4,1.8-0.4,1.6c32.7-4.7,66.2,0.7,98.2,7.9c31.1,6.9,61.5,16.8,92.5,24c26.4,6.1,52.8,5.6,79.1-0.6
				c9.5-2.2,19-5.1,28.7-6.6c10.3-1.6,19.3-0.3,29,3.2c11.9,4.3,22.9,10.6,34.8,14.8c12.8,4.6,26.7,6.7,40.3,5.9
				c31.6-1.8,60.9-16.5,92.9-16.3c33.2,0.3,64.6,9.7,96.6,17c26.1,5.9,51.8,6.2,77.9,0.4c14.2-3.2,28.2-7.1,42.5-9.8
				c9.3-1.8,18.8-3.6,28.3-3.9c9.6-0.2,19.1,1.2,28.4,3.5c17.9,4.4,34.9,11.9,52.7,16.6c17.5,4.6,35.6,7.2,53.7,6.3
				c8.4-0.4,16.7-1.7,24.9-3.7C1360.8,80.7,1360.4,79.3,1358.7,79.7L1358.7,79.7z"/>
		</g>
		<g>
			<path class="st0" d="M1358.5,42.7c-27.2,5.8-53.6,10.8-81.5,6.7c-26.7-3.9-52.2-13.1-77.5-22.3c-22.8-8.3-45.8-16.8-69.9-20.9
				c-25.3-4.4-51.2-5.8-76.8-4.6c-24.3,1.1-48.9,3.9-72.2,11.2c-22.7,7-44.3,17.2-66.8,25.1c-50.1,17.4-103.9,17.5-154.7,2.9
				c-24.6-7.3-48.4-17.2-72.9-25.3C662.6,7.7,638.6,2.9,613.8,1c-51-3.9-101,3.9-149.9,18c-24.7,7.1-49.2,15-74.1,21.3
				c-25.8,6.5-51.5,11.3-78.2,8.2C264.5,43.1,221.8,21,176.3,9C132.6-2.3,85.6-1,41.1,4.7C25.4,6.8,9.7,9.2-5.6,13.5
				C-24.4,18.7-43,24.6-61.9,29.4c-12.1,3.1-24.2,5.7-36.5,8c-1.8,0.3-1.3,2.3,0.5,1.9c22.9-4.2,45.4-10.1,67.8-16.6
				c15.2-4.5,30.3-9.2,45.9-12c45.5-8.2,93.3-11.4,139-3.8C200.7,14.5,242.7,37,288.1,47c22.2,4.9,44.6,6.4,67.2,2.9
				c24.5-3.8,48.6-10.8,72.3-17.8c25-7.4,49.9-15.4,75.4-21c26.1-5.8,52.8-8.8,79.6-9c27.2-0.2,54.9,2.2,81.3,9.2
				c24.9,6.6,48.7,16.4,73,24.8C782.7,51.8,831,58.5,879,49.4c23.2-4.4,45-12.9,66.8-21.7c24-9.6,47.7-17.7,73.4-21.1
				c53.7-7,107.1-2.7,158.3,15.1c47.4,16.5,94.7,37.2,146,29.8c11.9-1.7,23.7-4.4,35.5-6.9C1360.8,44.2,1360.3,42.3,1358.5,42.7
				L1358.5,42.7z"/>
		</g>
	</g>
</g>
</svg>
