<?xml version="1.0" encoding="utf-8"?>
<!-- Generator: Adobe Illustrator 23.0.1, SVG Export Plug-In . SVG Version: 6.00 Build 0)  -->
<svg version="1.1" id="NEOSTRATA_tagline_logo_PMS_10392"
	 xmlns="http://www.w3.org/2000/svg" xmlns:xlink="http://www.w3.org/1999/xlink" x="0px" y="0px" viewBox="0 0 510 17"
	 style="enable-background:new 0 0 510 17;" xml:space="preserve">
<style type="text/css">
	.st0{fill:#4D5459;}
</style>
<g>
	<g>
		<path class="st0" d="M6.1,3.1H1V0.5h13v2.6H8.9v13.4H6.1V3.1z"/>
		<path class="st0" d="M17.9,0.5h2.8v6.6h7.6V0.5h2.8v16h-2.8V9.8h-7.6v6.7h-2.8V0.5z"/>
		<path class="st0" d="M36.6,0.5h11.9V3h-9v4.2h8v2.5h-8V14h9.2v2.5h-12v-16H36.6z"/>
		<path class="st0" d="M60,14.2l1.7-2c1.5,1.3,3.1,2.1,5,2.1c1.7,0,2.8-0.8,2.8-2l0,0c0-1.1-0.6-1.8-3.6-2.4
			c-3.4-0.8-5.3-1.8-5.3-4.8l0,0c0-2.7,2.3-4.6,5.5-4.6c2.3,0,4.2,0.7,5.8,2l-1.5,2.1C69,3.5,67.5,3,66.1,3c-1.6,0-2.6,0.8-2.6,1.9
			l0,0c0,1.2,0.7,1.8,3.8,2.5c3.4,0.8,5.1,2,5.1,4.7l0,0c0,3-2.4,4.8-5.7,4.8C64.2,16.7,61.9,15.9,60,14.2z"/>
		<path class="st0" d="M76,8.5L76,8.5c0-4.6,3.4-8.3,8.2-8.3c2.9,0,4.7,1,6.3,2.5l-1.8,2.1c-1.3-1.2-2.7-2-4.5-2
			c-3.1,0-5.3,2.5-5.3,5.6l0,0c0,3.1,2.2,5.7,5.3,5.7c2,0,3.2-0.8,4.6-2.1l1.8,1.8c-1.7,1.7-3.5,2.8-6.5,2.8
			C79.4,16.8,76,13.1,76,8.5z"/>
		<path class="st0" d="M94.7,0.5h2.8v16h-2.8V0.5z"/>
		<path class="st0" d="M103,0.5h11.9V3h-9v4.2h8v2.5h-8V14h9.2v2.5h-12L103,0.5L103,0.5z"/>
		<path class="st0" d="M119.7,0.5h2.6l8.6,11.1V0.5h2.8v16h-2.4l-8.8-11.4v11.4h-2.8V0.5z"/>
		<path class="st0" d="M138.3,8.5L138.3,8.5c0-4.6,3.4-8.3,8.2-8.3c2.9,0,4.7,1,6.3,2.5L151,4.8c-1.3-1.2-2.7-2-4.5-2
			c-3.1,0-5.3,2.5-5.3,5.6l0,0c0,3.1,2.2,5.7,5.3,5.7c2,0,3.2-0.8,4.6-2.1l1.8,1.8c-1.7,1.7-3.5,2.8-6.5,2.8
			C141.7,16.8,138.3,13.1,138.3,8.5z"/>
		<path class="st0" d="M156.9,0.5h11.9V3h-9v4.2h8v2.5h-8V14h9.2v2.5h-12L156.9,0.5L156.9,0.5z"/>
		<path class="st0" d="M180.7,8.5L180.7,8.5c0-4.5,3.5-8.3,8.4-8.3s8.3,3.7,8.3,8.2l0,0c0,4.5-3.5,8.3-8.4,8.3
			C184.1,16.8,180.7,13,180.7,8.5z M194.4,8.5L194.4,8.5c0-3.2-2.3-5.7-5.4-5.7c-3.2,0-5.4,2.5-5.4,5.6l0,0c0,3.1,2.3,5.7,5.4,5.7
			C192.2,14.2,194.4,11.7,194.4,8.5z"/>
		<path class="st0" d="M202.1,0.5H214v2.6h-9.1v4.4h8.1V10h-8.1v6.5h-2.8L202.1,0.5L202.1,0.5z"/>
		<path class="st0" d="M225.1,14.2l1.7-2c1.5,1.3,3.1,2.1,5,2.1c1.7,0,2.8-0.8,2.8-2l0,0c0-1.1-0.6-1.8-3.6-2.4
			c-3.4-0.8-5.3-1.8-5.3-4.8l0,0c0-2.7,2.3-4.6,5.5-4.6c2.3,0,4.2,0.7,5.8,2l-1.5,2.1c-1.4-1.1-2.9-1.6-4.3-1.6
			c-1.6,0-2.6,0.8-2.6,1.9l0,0c0,1.2,0.7,1.8,3.8,2.5c3.4,0.8,5.1,2,5.1,4.7l0,0c0,3-2.4,4.8-5.7,4.8
			C229.3,16.7,227,15.9,225.1,14.2z"/>
		<path class="st0" d="M242,0.5h2.8v8l7.6-8h3.4l-6.6,6.9l6.9,9.1h-3.4l-5.5-7.2l-2.5,2.6v4.6H242V0.5z"/>
		<path class="st0" d="M259.9,0.5h2.8v16h-2.8V0.5z"/>
		<path class="st0" d="M268.3,0.5h2.6l8.6,11.1V0.5h2.8v16h-2.4L271,5.1v11.4h-2.8L268.3,0.5L268.3,0.5z"/>
		<path class="st0" d="M295.4,0.5h7.1c2,0,3.6,0.6,4.6,1.6c0.8,0.9,1.3,2.1,1.3,3.5l0,0c0,2.6-1.6,4.2-3.8,4.8l4.3,6.1h-3.3
			l-3.9-5.6l0,0h-3.5v5.6h-2.8L295.4,0.5L295.4,0.5z M302.4,8.4c2,0,3.3-1.1,3.3-2.7l0,0c0-1.7-1.2-2.7-3.3-2.7h-4.1v5.4H302.4z"/>
		<path class="st0" d="M313.2,0.5h11.9V3h-9v4.2h8v2.5h-8V14h9.2v2.5h-12v-16H313.2z"/>
		<path class="st0" d="M328.8,8.5L328.8,8.5c0-4.5,3.4-8.3,8.2-8.3c2.8,0,4.5,0.8,6.1,2.2l-1.8,2.1c-1.2-1.1-2.4-1.7-4.5-1.7
			c-2.9,0-5.2,2.6-5.2,5.6l0,0c0,3.3,2.2,5.7,5.4,5.7c1.5,0,2.9-0.5,3.9-1.2v-3h-4.1V7.6h6.8v6.7c-1.6,1.3-3.8,2.5-6.7,2.5
			C332.1,16.8,328.8,13.2,328.8,8.5z"/>
		<path class="st0" d="M348.8,0.5h11.9V3h-9v4.2h8v2.5h-8V14h9.2v2.5h-12v-16H348.8z"/>
		<path class="st0" d="M365.4,0.5h2.6l8.6,11.1V0.5h2.8v16H377l-8.8-11.4v11.4h-2.8L365.4,0.5L365.4,0.5z"/>
		<path class="st0" d="M384.8,0.5h11.9V3h-9v4.2h8v2.5h-8V14h9.2v2.5h-12v-16H384.8z"/>
		<path class="st0" d="M401.5,0.5h7.1c2,0,3.6,0.6,4.6,1.6c0.8,0.9,1.3,2.1,1.3,3.5l0,0c0,2.6-1.6,4.2-3.8,4.8l4.3,6.1h-3.3
			l-3.9-5.6l0,0h-3.5v5.6h-2.8L401.5,0.5L401.5,0.5z M408.4,8.4c2,0,3.3-1.1,3.3-2.7l0,0c0-1.7-1.2-2.7-3.3-2.7h-4.1v5.4H408.4z"/>
		<path class="st0" d="M425.3,0.4h2.6l7,16.1h-3l-1.6-3.9h-7.6l-1.6,3.9h-2.9L425.3,0.4z M429.3,10.1l-2.8-6.4l-2.7,6.4H429.3z"/>
		<path class="st0" d="M440.7,3.1h-5.1V0.5h13v2.6h-5.1v13.4h-2.8V3.1z"/>
		<path class="st0" d="M452.6,0.5h2.8v16h-2.8V0.5z"/>
		<path class="st0" d="M460.1,8.5L460.1,8.5c0-4.5,3.5-8.3,8.4-8.3s8.3,3.7,8.3,8.2l0,0c0,4.5-3.5,8.3-8.4,8.3
			C463.6,16.8,460.1,13,460.1,8.5z M473.9,8.5L473.9,8.5c0-3.2-2.3-5.7-5.4-5.7c-3.2,0-5.4,2.5-5.4,5.6l0,0c0,3.1,2.3,5.7,5.4,5.7
			C471.7,14.2,473.9,11.7,473.9,8.5z"/>
		<path class="st0" d="M481.5,0.5h2.6l8.6,11.1V0.5h2.8v16h-2.4l-8.8-11.4v11.4h-2.8L481.5,0.5L481.5,0.5z"/>
	</g>
</g>
<g>
	<path class="st0" d="M499.6,1.7h-1.8V0.7h4.7v0.9h-1.8v4.8h-1V1.7z"/>
	<path class="st0" d="M504.2,0.7h1.1l1.7,2.7l1.7-2.7h1.1v5.8h-1V2.4L507,5.1h0l-1.8-2.7v4.1h-1V0.7z"/>
</g>
</svg>
