<?xml version="1.0" encoding="utf-8"?>
<!-- Generator: Adobe Illustrator 22.1.0, SVG Export Plug-In . SVG Version: 6.00 Build 0)  -->
<svg version="1.1" id="NEOSTRATA_tagline_logo_PMS_10392"
	 xmlns="http://www.w3.org/2000/svg" xmlns:xlink="http://www.w3.org/1999/xlink" x="0px" y="0px" viewBox="0 0 500 17"
	 style="enable-background:new 0 0 500 17;" xml:space="preserve">
<style type="text/css">
	.st0{fill:#4D5459;}
</style>
<g>
	<g>
		<path class="st0" d="M5.1,3.1L0,3.1V0.5l13,0v2.6l-5.1,0v13.4H5.1V3.1z"/>
		<path class="st0" d="M16.9,0.5l2.8,0v6.6l7.6,0V0.5l2.8,0v16h-2.8V9.8l-7.6,0v6.7l-2.8,0V0.5z"/>
		<path class="st0" d="M35.6,0.5l11.9,0V3l-9,0v4.2l8,0v2.5l-8,0V14l9.2,0v2.5l-12,0V0.5z"/>
		<path class="st0" d="M59,14.2l1.7-2c1.5,1.3,3.1,2.1,5,2.1c1.7,0,2.8-0.8,2.8-2v0c0-1.1-0.6-1.8-3.6-2.4c-3.4-0.8-5.3-1.8-5.3-4.8
			v0c0-2.7,2.3-4.6,5.5-4.6c2.3,0,4.2,0.7,5.8,2l-1.5,2.1c-1.4-1.1-2.9-1.6-4.3-1.6c-1.6,0-2.6,0.8-2.6,1.9v0c0,1.2,0.7,1.8,3.8,2.5
			c3.4,0.8,5.1,2,5.1,4.7v0c0,3-2.4,4.8-5.7,4.8C63.2,16.7,60.9,15.9,59,14.2z"/>
		<path class="st0" d="M75,8.5L75,8.5c0-4.6,3.4-8.3,8.2-8.3c2.9,0,4.7,1,6.3,2.5l-1.8,2.1c-1.3-1.2-2.7-2-4.5-2
			c-3.1,0-5.3,2.5-5.3,5.6v0c0,3.1,2.2,5.7,5.3,5.7c2,0,3.2-0.8,4.6-2.1l1.8,1.8c-1.7,1.7-3.5,2.8-6.5,2.8C78.4,16.8,75,13.1,75,8.5
			z"/>
		<path class="st0" d="M93.7,0.5l2.8,0v16h-2.8V0.5z"/>
		<path class="st0" d="M102,0.5l11.9,0V3l-9,0v4.2l8,0v2.5l-8,0V14l9.2,0v2.5l-12,0V0.5z"/>
		<path class="st0" d="M118.7,0.5l2.6,0l8.6,11.1V0.5l2.8,0v16h-2.4l-8.8-11.4v11.4h-2.8V0.5z"/>
		<path class="st0" d="M137.3,8.5L137.3,8.5c0-4.6,3.4-8.3,8.2-8.3c2.9,0,4.7,1,6.3,2.5L150,4.8c-1.3-1.2-2.7-2-4.5-2
			c-3.1,0-5.3,2.5-5.3,5.6v0c0,3.1,2.2,5.7,5.3,5.7c2,0,3.2-0.8,4.6-2.1l1.8,1.8c-1.7,1.7-3.5,2.8-6.5,2.8
			C140.7,16.8,137.3,13.1,137.3,8.5z"/>
		<path class="st0" d="M155.9,0.5l11.9,0V3l-9,0v4.2l8,0v2.5l-8,0V14l9.2,0v2.5l-12,0V0.5z"/>
		<path class="st0" d="M179.7,8.5L179.7,8.5c0-4.5,3.5-8.3,8.4-8.3c4.9,0,8.3,3.7,8.3,8.2v0c0,4.5-3.5,8.3-8.4,8.3
			C183.1,16.8,179.7,13,179.7,8.5z M193.4,8.5L193.4,8.5c0-3.2-2.3-5.7-5.4-5.7c-3.2,0-5.4,2.5-5.4,5.6v0c0,3.1,2.3,5.7,5.4,5.7
			C191.2,14.2,193.4,11.7,193.4,8.5z"/>
		<path class="st0" d="M201.1,0.5l11.9,0v2.6l-9.1,0v4.4l8.1,0V10l-8.1,0v6.5h-2.8V0.5z"/>
		<path class="st0" d="M224.1,14.2l1.7-2c1.5,1.3,3.1,2.1,5,2.1c1.7,0,2.8-0.8,2.8-2v0c0-1.1-0.6-1.8-3.6-2.4
			c-3.4-0.8-5.3-1.8-5.3-4.8v0c0-2.7,2.3-4.6,5.5-4.6c2.3,0,4.2,0.7,5.8,2l-1.5,2.1c-1.4-1.1-2.9-1.6-4.3-1.6
			c-1.6,0-2.6,0.8-2.6,1.9v0c0,1.2,0.7,1.8,3.8,2.5c3.4,0.8,5.1,2,5.1,4.7v0c0,3-2.4,4.8-5.7,4.8C228.3,16.7,226,15.9,224.1,14.2z"
			/>
		<path class="st0" d="M241,0.5l2.8,0v8l7.6-8l3.4,0l-6.6,6.9l6.9,9.1l-3.4,0l-5.5-7.2l-2.5,2.6v4.6H241V0.5z"/>
		<path class="st0" d="M258.9,0.5l2.8,0v16h-2.8V0.5z"/>
		<path class="st0" d="M267.3,0.5l2.6,0l8.6,11.1V0.5l2.8,0v16h-2.4L270,5.1v11.4l-2.8,0V0.5z"/>
		<path class="st0" d="M294.4,0.5l7.1,0c2,0,3.6,0.6,4.6,1.6c0.8,0.9,1.3,2.1,1.3,3.5v0c0,2.6-1.6,4.2-3.8,4.8l4.3,6.1h-3.3
			l-3.9-5.6h0h-3.5v5.6l-2.8,0V0.5z M301.4,8.4c2,0,3.3-1.1,3.3-2.7v0c0-1.7-1.2-2.7-3.3-2.7l-4.1,0v5.4L301.4,8.4z"/>
		<path class="st0" d="M312.2,0.5l11.9,0V3l-9,0v4.2l8,0v2.5l-8,0V14l9.2,0v2.5l-12,0V0.5z"/>
		<path class="st0" d="M327.8,8.5L327.8,8.5c0-4.5,3.4-8.3,8.2-8.3c2.8,0,4.5,0.8,6.1,2.2l-1.8,2.1c-1.2-1.1-2.4-1.7-4.5-1.7
			c-2.9,0-5.2,2.6-5.2,5.6v0c0,3.3,2.2,5.7,5.4,5.7c1.5,0,2.9-0.5,3.9-1.2v-3h-4.1V7.6l6.8,0v6.7c-1.6,1.3-3.8,2.5-6.7,2.5
			C331.1,16.8,327.8,13.2,327.8,8.5z"/>
		<path class="st0" d="M347.8,0.5l11.9,0V3l-9,0v4.2l8,0v2.5l-8,0V14l9.2,0v2.5l-12,0V0.5z"/>
		<path class="st0" d="M364.4,0.5l2.6,0l8.6,11.1V0.5l2.8,0v16H376l-8.8-11.4v11.4l-2.8,0V0.5z"/>
		<path class="st0" d="M383.8,0.5l11.9,0V3l-9,0v4.2l8,0v2.5l-8,0V14l9.2,0v2.5l-12,0V0.5z"/>
		<path class="st0" d="M400.5,0.5l7.1,0c2,0,3.6,0.6,4.6,1.6c0.8,0.9,1.3,2.1,1.3,3.5v0c0,2.6-1.6,4.2-3.8,4.8l4.3,6.1h-3.3
			l-3.9-5.6h0h-3.5v5.6h-2.8V0.5z M407.4,8.4c2,0,3.3-1.1,3.3-2.7v0c0-1.7-1.2-2.7-3.3-2.7l-4.1,0v5.4L407.4,8.4z"/>
		<path class="st0" d="M424.3,0.4l2.6,0l7,16.1h-3l-1.6-3.9l-7.6,0l-1.6,3.9h-2.9L424.3,0.4z M428.3,10.1l-2.8-6.4l-2.7,6.4
			L428.3,10.1z"/>
		<path class="st0" d="M439.7,3.1l-5.1,0V0.5l13,0v2.6l-5.1,0v13.4h-2.8V3.1z"/>
		<path class="st0" d="M451.6,0.5l2.8,0v16h-2.8V0.5z"/>
		<path class="st0" d="M459.1,8.5L459.1,8.5c0-4.5,3.5-8.3,8.4-8.3c4.9,0,8.3,3.7,8.3,8.2v0c0,4.5-3.5,8.3-8.4,8.3
			C462.6,16.8,459.1,13,459.1,8.5z M472.9,8.5L472.9,8.5c0-3.2-2.3-5.7-5.4-5.7c-3.2,0-5.4,2.5-5.4,5.6v0c0,3.1,2.3,5.7,5.4,5.7
			C470.7,14.2,472.9,11.7,472.9,8.5z"/>
		<path class="st0" d="M480.5,0.5l2.6,0l8.6,11.1V0.5l2.8,0v16h-2.4l-8.8-11.4v11.4h-2.8V0.5z"/>
	</g>
</g>
</svg>
