<?xml version="1.0" encoding="utf-8"?>
<!-- Generator: Adobe Illustrator 22.1.0, SVG Export Plug-In . SVG Version: 6.00 Build 0)  -->
<svg version="1.1" id="Layer_1" xmlns="http://www.w3.org/2000/svg" xmlns:xlink="http://www.w3.org/1999/xlink" x="0px" y="0px"
	 viewBox="0 0 43 9" style="enable-background:new 0 0 43 9;" xml:space="preserve">
<style type="text/css">
	.st0{fill:none;stroke:#CCCCCC;stroke-miterlimit:10;}
	.st1{fill:#FFFFFF;}
	.st2{fill:#CCCCCC;}
</style>
<g>
	<g>
		<line class="st0" x1="43" y1="4.5" x2="10" y2="4.5"/>
		<g>
			<g>
				<path class="st1" d="M10.3,0.7c-2.1,0-3.8,1.7-3.8,3.8s1.7,3.8,3.8,3.8c2.1,0,3.8-1.7,3.8-3.8S12.3,0.7,10.3,0.7z"/>
				<path class="st2" d="M10.3,0.2c2.3,0,4.3,1.9,4.3,4.3s-1.9,4.3-4.3,4.3C7.9,8.8,6,6.8,6,4.5S7.9,0.2,10.3,0.2
					C12.6,0.2,7.9,0.2,10.3,0.2z M10.3,7.8c1.8,0,3.3-1.5,3.3-3.3s-1.5-3.3-3.3-3.3C8.5,1.2,7,2.7,7,4.5S8.5,7.8,10.3,7.8
					C12.1,7.8,8.5,7.8,10.3,7.8z"/>
			</g>
		</g>
	</g>
</g>
</svg>
